<svg height="512pt" viewBox="0 0 512.00338 512" width="512pt" xmlns="http://www.w3.org/2000/svg"><path d="m145.339844 458.109375c-2.398438-2.972656-3.671875-7.050781-3.054688-12.261719 4.980469-42.308594 15.554688-79.734375 35.914063-114.484375-10.65625 5.574219-21.367188 11.058594-32.578125 15.546875-24.773438 9.917969-54.605469 9.011719-76.84375 24.3125-7.925782 5.453125-15.605469 3.730469-20.90625-1.1875-4.664063-1.609375-7.960938-4.863281-9.886719-8.882812l-29.5625 12.230468c24.339844 58.75 71.3125 105.71875 130.054687 130.054688l14.277344-34.5c-3.855468-2.550781-6.324218-6.46875-7.414062-10.828125zm0 0" fill="#dc691d"/><path d="m151.542969 471.847656 78.726562-190.265625-193.847656 80.210938c25.164063 48.179687 65.695313 87.03125 115.121094 110.054687zm0 0" fill="#f7e6a1"/><path d="m170.546875 345.582031c0-13.089843-5.367187-24.910156-14.011719-33.425781l-79.835937 33.03125c0 .128906-.019531.257812-.019531.394531 0 25.921875 21.011718 46.929688 46.933593 46.929688 25.914063 0 46.933594-21.015625 46.933594-46.929688zm0 0" fill="#dc691d"/><path d="m224.894531 10.398438c-110.496093 13.414062-199.457031 101.507812-214.21875 211.835937-5.496093 41.027344-.765625 80.347656 11.792969 115.980469l33.425781-13.976563c-1.007812-7.355469 1.730469-15.246093 8.148438-19.351562 1.253906-1.324219 2.722656-2.5625 4.546875-3.628907 39.230468-22.679687 81.628906-33.074218 123.988281-47.929687 27.058594-9.488281 58.785156-30.882813 85.792969-10.734375 9.925781 7.40625 9.863281 19.558594 4.855468 27.871094 1.449219 3.480468 1.636719 7.667968-.296874 12.472656-9.644532 23.9375-21.726563 46.164062-34.414063 68.589844-12.433594 21.992187-32.324219 48.367187-36.582031 74.113281 10.722656 10.308594 6.519531 33.527344-12.726563 33.527344-4.121093 0-7.492187-1.136719-10.238281-2.910157l-13.847656 33.621094c35.53125 12.261719 74.671875 16.792969 115.503906 11.140625 110.113281-15.238281 197.78125-104.332031 210.90625-214.71875 19.097656-160.65625-115.898438-295.410156-276.636719-275.902343zm0 0" fill="#dc691d"/><path d="m240.277344 43.207031c-99.546875 7.074219-182.199219 84.367188-195.714844 183.242188-4.710938 34.472656-.785156 68.503906 9.351562 98.609375l194.140626-81.382813c12.671874-5.238281 25.351562 7.441407 20.109374 20.113281l-80.023437 194.472657c30.097656 10.136719 62.753906 13.730469 97.226563 9.027343 98.875-13.492187 176.175781-96.117187 183.277343-195.648437 9.285157-130.140625-98.242187-237.683594-228.367187-228.433594zm0 0" fill="#f7e6a1"/><path d="m187.613281 183.449219c0 25.921875-21.011719 46.933593-46.933593 46.933593-25.921876 0-46.933594-21.011718-46.933594-46.933593 0-25.917969 21.011718-46.929688 46.933594-46.929688 25.921874 0 46.933593 21.011719 46.933593 46.929688zm0 0" fill="#dc691d"/><path d="m349.742188 383.980469c0 25.917969-21.011719 46.933593-46.933594 46.933593-25.917969 0-46.929688-21.015624-46.929688-46.933593 0-25.921875 21.011719-46.933594 46.929688-46.933594 25.921875 0 46.933594 21.011719 46.933594 46.933594zm0 0" fill="#dc691d"/><path d="m443.609375 268.78125c0 25.921875-21.015625 46.933594-46.933594 46.933594-25.921875 0-46.933593-21.011719-46.933593-46.933594 0-25.917969 21.011718-46.933594 46.933593-46.933594 25.917969 0 46.933594 21.015625 46.933594 46.933594zm0 0" fill="#dc691d"/><path d="m358.277344 140.785156c0 25.917969-21.011719 46.929688-46.933594 46.929688s-46.933594-21.011719-46.933594-46.929688c0-25.921875 21.011719-46.933594 46.933594-46.933594s46.933594 21.011719 46.933594 46.933594zm0 0" fill="#dc691d"/><g fill="#4d007e"><path d="m230.277344 221.847656c-2.183594 0-4.367188-.835937-6.03125-2.5-3.335938-3.335937-3.335938-8.726562 0-12.0625l17.066406-17.066406c3.328125-3.339844 8.738281-3.339844 12.066406 0 3.335938 3.335938 3.335938 8.726562 0 12.0625l-17.066406 17.066406c-1.664062 1.664063-3.859375 2.5-6.035156 2.5zm0 0"/><path d="m392.410156 196.25c-2.1875 0-4.371094-.835938-6.035156-2.5-3.335938-3.335938-3.335938-8.730469 0-12.066406l17.066406-17.066406c3.335938-3.335938 8.730469-3.335938 12.066406 0 3.335938 3.335937 3.335938 8.730468 0 12.066406l-17.066406 17.066406c-1.671875 1.664062-3.855468 2.5-6.03125 2.5zm0 0"/><path d="m298.542969 298.648438c-2.183594 0-4.367188-.835938-6.03125-2.5-3.335938-3.335938-3.335938-8.730469 0-12.066407l17.066406-17.066406c3.335937-3.335937 8.730469-3.335937 12.066406 0 3.335938 3.335937 3.335938 8.730469 0 12.066406l-17.066406 17.066407c-1.675781 1.664062-3.859375 2.5-6.035156 2.5zm0 0"/><path d="m76.679688 281.582031c-2.183594 0-4.367188-.835937-6.03125-2.5-3.335938-3.335937-3.335938-8.730469 0-12.066406l17.066406-17.066406c3.328125-3.335938 8.738281-3.335938 12.066406 0 3.335938 3.335937 3.335938 8.730469 0 12.066406l-17.066406 17.066406c-1.664063 1.664063-3.859375 2.5-6.035156 2.5zm0 0"/><path d="m383.875 375.445312c-2.183594 0-4.367188-.835937-6.03125-2.5-3.335938-3.335937-3.335938-8.726562 0-12.066406l17.066406-17.066406c3.335938-3.335938 8.726563-3.335938 12.066406 0 3.335938 3.339844 3.335938 8.730469 0 12.066406l-17.066406 17.066406c-1.675781 1.664063-3.859375 2.5-6.035156 2.5zm0 0"/><path d="m196.144531 119.453125c-2.183593 0-4.367187-.839844-6.03125-2.503906-3.335937-3.335938-3.335937-8.726563 0-12.0625l17.066407-17.066407c3.328124-3.339843 8.738281-3.339843 12.066406 0 3.335937 3.335938 3.335937 8.726563 0 12.0625l-17.066406 17.066407c-1.664063 1.664062-3.859376 2.503906-6.035157 2.503906zm0 0"/><path d="m255.871094 477.863281c-24.023438 0-47.695313-3.890625-70.691406-11.640625-2.234376-.75-4.0625-2.398437-5.042969-4.546875-.980469-2.152343-1.015625-4.617187-.117188-6.800781l80.414063-194.335938c1.628906-3.933593-.722656-6.714843-1.484375-7.476562-.757813-.757812-3.539063-3.097656-7.472657-1.492188l-194.34375 80.417969c-2.1875.894531-4.644531.859375-6.792968-.121093-2.152344-.972657-3.808594-2.796876-4.558594-5.042969-11.042969-32.792969-14.25-66.960938-9.523438-101.535157 14.082032-103.054687 99.695313-183.21875 203.5625-190.589843 64.492188-4.660157 127.585938 18.902343 173.101563 64.425781s68.972656 108.628906 64.375 173.121094c-7.40625 103.847656-87.574219 189.429687-190.632813 203.507812-10.304687 1.410156-20.589843 2.109375-30.792968 2.109375zm-56.515625-25.089843c27.578125 7.960937 56.121093 10.027343 85.007812 6.058593 95.09375-12.976562 169.074219-91.960937 175.910157-187.804687 4.25-59.554688-17.40625-117.820313-59.425782-159.835938-42.007812-42.027344-100.265625-63.597656-159.824218-59.476562-95.855469 6.816406-174.855469 80.785156-187.859376 175.886718-3.953124 28.894532-1.914062 57.453126 6.058594 85.050782l185.714844-76.859375c9.113281-3.773438 19.105469-1.785157 26.070312 5.1875 6.972657 6.964843 8.960938 16.957031 5.1875 26.078125zm41.070312-409.566407h.082031zm0 0"/><path d="m138.613281 511.976562c-1.109375 0-2.21875-.210937-3.265625-.648437-60.519531-25.070313-109.609375-74.152344-134.671875-134.667969-.871093-2.09375-.871093-4.445312 0-6.539062.871094-2.089844 2.527344-3.746094 4.625-4.617188l221.863281-91.808594c3.191407-1.335937 6.859376-.585937 9.292969 1.855469 2.441407 2.4375 3.171875 6.109375 1.851563 9.300781l-91.808594 221.863282c-.871094 2.089844-2.527344 3.746094-4.617188 4.613281-1.050781.429687-2.160156.648437-3.269531.648437zm-118.753906-134.03125c23.039063 50.1875 64.015625 91.160157 114.199219 114.203126l80.613281-194.8125zm0 0"/><path d="m255.828125 512.003906c-28.367187 0-56.269531-4.695312-83.34375-14.046875-2.21875-.765625-4.027344-2.414062-4.992187-4.554687-.964844-2.144532-1.007813-4.582032-.113282-6.757813l93.0625-225.96875c1.621094-3.933593-.742187-6.714843-1.507812-7.476562-.769532-.757813-3.550782-3.121094-7.492188-1.457031l-225.542968 94.351562c-2.167969.902344-4.605469.886719-6.757813-.078125-2.140625-.945313-3.804687-2.746094-4.582031-4.964844-13.585938-38.5625-17.6875-78.917969-12.203125-119.953125 15.402343-115.078125 106.554687-205.207031 221.660156-219.175781 79.222656-9.574219 156.769531 16.921875 212.792969 72.816406 56.019531 55.882813 82.753906 133.363281 73.339844 212.578125-13.660157 114.925782-103.386719 206.28125-218.199219 222.160156-12.101563 1.683594-24.152344 2.519532-36.121094 2.527344zm-69.164063-27.375c33.304688 10.128906 67.890626 12.792969 102.9375 7.960938 107.132813-14.828125 190.851563-100.058594 203.601563-207.289063 8.796875-73.972656-16.152344-146.316406-68.445313-198.488281-52.289062-52.15625-124.722656-76.980469-198.679687-67.941406-107.398437 13.03125-192.429687 97.125-206.800781 204.496094-4.71875 35.292968-1.851563 70.042968 8.535156 103.421874l217.050781-90.808593c9.101563-3.796875 19.113281-1.851563 26.109375 5.113281 6.996094 6.960938 9.011719 16.945312 5.257813 26.074219zm38.382813-474.230468h.085937zm0 0"/><path d="m151.6875 480.378906c-1.238281 0-2.464844-.265625-3.601562-.800781-50.816407-23.664063-93.097657-64.09375-119.070313-113.832031-1.109375-2.125-1.273437-4.617188-.453125-6.871094s2.542969-4.054688 4.761719-4.964844l193.847656-80.214844c3.191406-1.335937 6.859375-.585937 9.292969 1.855469 2.441406 2.4375 3.175781 6.109375 1.851562 9.300781l-78.746094 190.253907c-.886718 2.152343-2.617187 3.839843-4.785156 4.683593-1 .394532-2.046875.589844-3.097656.589844zm-103.054688-114.335937c23.003907 40.089843 57.554688 73.070312 98.652344 94.136719l67.386719-162.84375zm0 0"/><path d="m140.679688 238.914062c-30.582032 0-55.464844-24.882812-55.464844-55.464843s24.882812-55.464844 55.464844-55.464844c30.582031 0 55.464843 24.882813 55.464843 55.464844s-24.882812 55.464843-55.464843 55.464843zm0-93.863281c-21.171876 0-38.398438 17.230469-38.398438 38.398438 0 21.171875 17.226562 38.398437 38.398438 38.398437 21.171874 0 38.398437-17.226562 38.398437-38.398437 0-21.167969-17.226563-38.398438-38.398437-38.398438zm0 0"/><path d="m154.945312 204.765625c-3.503906 0-6.789062-2.175781-8.035156-5.65625-1.308594-3.660156-1.964844-7.484375-1.964844-11.394531 0-8.445313 3.117188-16.535156 8.78125-22.789063 3.167969-3.5 8.558594-3.765625 12.058594-.597656 3.496094 3.164063 3.753906 8.558594.597656 12.046875-2.816406 3.105469-4.363281 7.136719-4.363281 11.339844 0 1.949218.324219 3.84375.972657 5.640625 1.589843 4.449219-.722657 9.328125-5.160157 10.90625-.964843.34375-1.929687.503906-2.886719.503906zm0 0"/><path d="m119.347656 179.183594c-4.710937 0-8.535156-3.8125-8.535156-8.535156 0-4.71875 3.824219-8.53125 8.535156-8.53125 4.0625 0 7.796875-1.867188 10.238282-5.128907 2.832031-3.769531 8.175781-4.511719 11.945312-1.699219 3.773438 2.835938 4.53125 8.183594 1.699219 11.949219-5.613281 7.472657-14.539063 11.945313-23.882813 11.945313zm0 0"/><path d="m136.414062 213.316406c-2.59375 0-5.15625-1.175781-6.835937-3.40625-2.441406-3.257812-6.179687-5.128906-10.238281-5.128906-4.710938 0-8.535156-3.8125-8.535156-8.53125s3.824218-8.535156 8.535156-8.535156c9.34375 0 18.277344 4.464844 23.890625 11.941406 2.832031 3.761719 2.066406 9.113281-1.699219 11.945312-1.535156 1.152344-3.335938 1.714844-5.117188 1.714844zm0 0"/><path d="m302.808594 439.445312c-30.582032 0-55.464844-24.882812-55.464844-55.464843s24.882812-55.464844 55.464844-55.464844c30.585937 0 55.46875 24.882813 55.46875 55.464844s-24.882813 55.464843-55.46875 55.464843zm0-93.863281c-21.167969 0-38.398438 17.226563-38.398438 38.398438s17.230469 38.398437 38.398438 38.398437c21.171875 0 38.402344-17.226562 38.402344-38.398437s-17.230469-38.398438-38.402344-38.398438zm0 0"/><path d="m317.070312 405.296875c-3.507812 0-6.785156-2.175781-8.039062-5.660156-1.296875-3.648438-1.960938-7.480469-1.960938-11.390625 0-8.445313 3.121094-16.546875 8.789063-22.800782 3.164063-3.488281 8.546875-3.738281 12.054687-.589843 3.492188 3.167969 3.753907 8.570312.589844 12.058593-2.816406 3.097657-4.359375 7.125-4.359375 11.332032 0 1.953125.324219 3.839844.972657 5.640625 1.585937 4.445312-.726563 9.328125-5.164063 10.90625-.957031.339843-1.929687.503906-2.882813.503906zm0 0"/><path d="m281.476562 379.714844c-4.710937 0-8.53125-3.816406-8.53125-8.535156s3.820313-8.53125 8.53125-8.53125c4.070313 0 7.800782-1.871094 10.242188-5.128907 2.832031-3.765625 8.171875-4.523437 11.945312-1.699219 3.761719 2.832032 4.53125 8.183594 1.699219 11.945313-5.617187 7.476563-14.542969 11.949219-23.886719 11.949219zm0 0"/><path d="m298.550781 413.847656c-2.59375 0-5.152343-1.179687-6.832031-3.40625-2.441406-3.257812-6.179688-5.128906-10.242188-5.128906-4.710937 0-8.53125-3.8125-8.53125-8.53125s3.820313-8.535156 8.53125-8.535156c9.34375 0 18.277344 4.464844 23.894532 11.9375 2.832031 3.765625 2.0625 9.113281-1.699219 11.949218-1.542969 1.148438-3.335937 1.714844-5.121094 1.714844zm0 0"/><path d="m137.882812 366.898438c-3.507812 0-6.792968-2.175782-8.039062-5.660157-1.308594-3.660156-1.964844-7.484375-1.964844-11.390625 0-8.449218 3.117188-16.539062 8.78125-22.792968 3.167969-3.5 8.566406-3.761719 12.058594-.597657 3.488281 3.167969 3.753906 8.558594.597656 12.050781-2.816406 3.105469-4.363281 7.132813-4.363281 11.339844 0 1.945313.324219 3.839844.972656 5.640625 1.589844 4.445313-.722656 9.328125-5.160156 10.90625-.964844.339844-1.929687.503907-2.882813.503907zm0 0"/><path d="m396.675781 324.246094c-30.582031 0-55.464843-24.882813-55.464843-55.464844s24.882812-55.464844 55.464843-55.464844 55.464844 24.882813 55.464844 55.464844-24.882813 55.464844-55.464844 55.464844zm0-93.863282c-21.171875 0-38.398437 17.226563-38.398437 38.398438s17.226562 38.398438 38.398437 38.398438 38.398438-17.226563 38.398438-38.398438-17.226563-38.398438-38.398438-38.398438zm0 0"/><path d="m410.933594 290.097656c-3.507813 0-6.78125-2.175781-8.039063-5.65625-1.296875-3.652344-1.960937-7.484375-1.960937-11.394531 0-8.445313 3.125-16.542969 8.789062-22.800781 3.164063-3.488282 8.550782-3.734375 12.058594-.585938 3.488281 3.164063 3.753906 8.566406.585938 12.054688-2.8125 3.097656-4.359376 7.128906-4.359376 11.332031 0 1.957031.324219 3.839844.972657 5.640625 1.589843 4.449219-.722657 9.328125-5.160157 10.90625-.957031.34375-1.929687.503906-2.886718.503906zm0 0"/><path d="m375.34375 264.515625c-4.710938 0-8.535156-3.816406-8.535156-8.535156s3.824218-8.53125 8.535156-8.53125c4.070312 0 7.796875-1.867188 10.238281-5.128907 2.832031-3.761718 8.175781-4.515624 11.945313-1.699218 3.765625 2.835937 4.53125 8.183594 1.699218 11.949218-5.613281 7.472657-14.539062 11.945313-23.882812 11.945313zm0 0"/><path d="m392.417969 298.648438c-2.59375 0-5.15625-1.179688-6.835938-3.40625-2.441406-3.257813-6.175781-5.128907-10.238281-5.128907-4.710938 0-8.535156-3.8125-8.535156-8.53125s3.824218-8.535156 8.535156-8.535156c9.34375 0 18.277344 4.464844 23.890625 11.941406 2.835937 3.761719 2.066406 9.113281-1.695313 11.945313-1.546874 1.152344-3.339843 1.714844-5.121093 1.714844zm0 0"/><path d="m311.34375 196.25c-30.582031 0-55.464844-24.882812-55.464844-55.464844 0-30.582031 24.882813-55.464844 55.464844-55.464844s55.464844 24.882813 55.464844 55.464844c0 30.582032-24.882813 55.464844-55.464844 55.464844zm0-93.863281c-21.171875 0-38.398438 17.226562-38.398438 38.398437 0 21.167969 17.226563 38.398438 38.398438 38.398438s38.398438-17.230469 38.398438-38.398438c0-21.171875-17.226563-38.398437-38.398438-38.398437zm0 0"/><path d="m325.601562 162.101562c-3.507812 0-6.78125-2.175781-8.039062-5.660156-1.296875-3.652344-1.960938-7.480468-1.960938-11.390625 0-8.449219 3.125-16.546875 8.789063-22.800781 3.164063-3.488281 8.550781-3.746094 12.058594-.589844 3.488281 3.167969 3.753906 8.570313.585937 12.058594-2.8125 3.097656-4.359375 7.125-4.359375 11.332031 0 1.953125.324219 3.839844.972657 5.640625 1.589843 4.445313-.722657 9.328125-5.160157 10.90625-.957031.339844-1.929687.503906-2.886719.503906zm0 0"/><path d="m290.011719 136.519531c-4.710938 0-8.535157-3.816406-8.535157-8.535156s3.824219-8.53125 8.535157-8.53125c4.070312 0 7.796875-1.871094 10.238281-5.128906 2.832031-3.765625 8.175781-4.515625 11.945312-1.699219 3.765626 2.832031 4.53125 8.183594 1.699219 11.945312-5.613281 7.476563-14.539062 11.949219-23.882812 11.949219zm0 0"/><path d="m307.085938 170.648438c-2.59375 0-5.15625-1.175782-6.835938-3.402344-2.441406-3.261719-6.175781-5.128906-10.238281-5.128906-4.710938 0-8.535157-3.8125-8.535157-8.53125 0-4.722657 3.824219-8.535157 8.535157-8.535157 9.34375 0 18.277343 4.464844 23.890625 11.9375 2.835937 3.761719 2.066406 9.113281-1.695313 11.945313-1.546875 1.152344-3.339843 1.714844-5.121093 1.714844zm0 0"/><path d="m123.613281 401.046875c-30.582031 0-55.464843-24.882813-55.464843-55.464844 0-.214843.015624-.640625.035156-.863281.246094-3.207031 2.285156-6.195312 5.253906-7.414062l79.835938-33.03125c3.167968-1.324219 6.8125-.597657 9.25 1.796874 10.675781 10.515626 16.554687 24.550782 16.554687 39.511719 0 30.582031-24.882813 55.464844-55.464844 55.464844zm-38.015625-50.3125c2.601563 18.851563 18.652344 33.246094 38.015625 33.246094 21.171875 0 38.398438-17.230469 38.398438-38.398438 0-8.5-2.746094-16.574219-7.824219-23.21875zm0 0"/></g></svg>