<svg height="512pt" viewBox="0 0 512.01191 512" width="512pt" xmlns="http://www.w3.org/2000/svg"><path d="m224.757812 10.402344c-110.496093 13.40625-199.457031 101.503906-214.21875 211.839844-5.496093 41.027343-.765624 80.347656 11.792969 115.980468l33.425781-13.976562c-1.007812-7.355469 1.730469-15.25 8.148438-19.351563 1.253906-1.324219 2.722656-2.5625 4.546875-3.628906 39.230469-22.679687 81.628906-33.074219 123.988281-47.929687 27.058594-9.488282 58.785156-30.882813 85.792969-10.734376 9.925781 7.40625 9.863281 19.558594 4.855469 27.867188 1.449218 3.484375 1.640625 7.671875-.296875 12.476562-9.644531 23.9375-21.726563 46.164063-34.414063 68.589844-12.433594 21.988282-32.324218 48.367188-36.582031 74.109375 10.726563 10.308594 6.519531 33.527344-12.722656 33.527344-4.125 0-7.492188-1.132813-10.242188-2.910156l-13.847656 33.621093c35.53125 12.261719 74.671875 16.792969 115.503906 11.144532 110.113281-15.238282 197.78125-104.335938 210.90625-214.71875 19.097657-160.664063-115.898437-295.410156-276.636719-275.90625zm0 0" fill="#be6e41"/><path d="m240.144531 43.207031c-99.550781 7.074219-182.203125 84.367188-195.71875 183.238281-4.710937 34.484376-.792969 68.507813 9.351563 98.613282l194.140625-81.382813c12.671875-5.238281 25.351562 7.441407 20.109375 20.113281l-80.023438 194.472657c30.097656 10.136719 62.753906 13.726562 97.226563 9.027343 98.867187-13.5 176.167969-96.128906 183.277343-195.660156 9.285157-130.121094-98.242187-237.671875-228.363281-228.421875zm0 0" fill="#f7e6a1"/><path d="m145.203125 458.105469c-2.398437-2.96875-3.671875-7.046875-3.054687-12.261719 4.980468-42.308594 15.554687-79.734375 35.914062-114.480469-10.65625 5.570313-21.367188 11.058594-32.578125 15.546875-24.773437 9.914063-54.605469 9.011719-76.84375 24.3125-7.925781 5.453125-15.605469 3.726563-20.90625-1.1875-4.664063-1.613281-7.960937-4.863281-9.886719-8.882812l-29.558594 12.226562c24.335938 58.753906 71.308594 105.71875 130.050782 130.054688l14.277344-34.5c-3.855469-2.542969-6.324219-6.457032-7.414063-10.828125zm0 0" fill="#be6e41"/><path d="m151.40625 471.84375 78.726562-190.261719-193.847656 80.210938c25.164063 48.175781 65.695313 87.027343 115.121094 110.050781zm0 0" fill="#f7e6a1"/><path d="m170.410156 196.25c0-14.140625-15.285156-25.601562-34.132812-25.601562-18.851563 0-34.132813 11.460937-34.132813 25.601562 0 7.242188 4.0625 13.726562 10.527344 18.363281 4.25 3.042969 6.539063 8.148438 6.539063 13.378907v1.347656c0 8.507812 5.757812 16.445312 14.148437 17.859375 10.65625 1.792969 19.984375-6.476563 19.984375-16.816407v-2.390624c0-5.230469 2.285156-10.34375 6.535156-13.378907 6.46875-4.636719 10.53125-11.121093 10.53125-18.363281zm0 0" fill="#6b4842"/><path d="m434.9375 213.316406c0 14.136719-15.28125 25.597656-34.132812 25.597656-18.847657 0-34.132813-11.460937-34.132813-25.597656 0-7.246094 4.0625-13.730468 10.53125-18.363281 4.25-3.046875 6.535156-8.152344 6.535156-13.382813v-1.347656c0-8.507812 5.761719-16.441406 14.148438-17.859375 10.660156-1.792969 19.984375 6.476563 19.984375 16.820313v2.386718c0 5.230469 2.289062 10.34375 6.539062 13.382813 6.464844 4.632813 10.527344 11.117187 10.527344 18.363281zm0 0" fill="#6b4842"/><path d="m262.285156 90.53125c-9.992187-9.992188-28.910156-7.296875-42.238281 6.03125s-16.035156 32.238281-6.03125 42.242188c5.117187 5.117187 12.578125 6.839843 20.425781 5.535156 5.164063-.851563 10.386719 1.144531 14.089844 4.839844l.957031.957031c6.015625 6.015625 15.699219 7.558593 22.628907 2.617187 8.804687-6.269531 9.546874-18.710937 2.234374-26.027344l-1.6875-1.6875c-3.695312-3.695312-5.691406-8.925781-4.839843-14.089843 1.304687-7.839844-.410157-15.296875-5.539063-20.417969zm0 0" fill="#6b4842"/><path d="m326.992188 412.941406c-9.992188 9.992188-28.910157 7.292969-42.238282-6.035156s-16.035156-32.238281-6.03125-42.238281c5.117188-5.121094 12.578125-6.84375 20.425782-5.539063 5.164062.855469 10.386718-1.140625 14.089843-4.835937l.957031-.957031c6.015626-6.015626 15.699219-7.5625 22.628907-2.621094 8.804687 6.273437 9.546875 18.714844 2.234375 26.027344l-1.6875 1.691406c-3.695313 3.691406-5.691406 8.925781-4.839844 14.085937 1.304688 7.84375-.410156 15.300781-5.539062 20.421875zm0 0" fill="#6b4842"/><path d="m142.8125 348.546875c-4.25-3.042969-6.535156-8.148437-6.535156-13.378906v-2.386719c0-4.039062-1.453125-7.734375-3.816406-10.660156l-30.316407 12.542968v.503907c0 5.230469-2.289062 10.335937-6.535156 13.378906-6.46875 4.636719-10.53125 11.121094-10.53125 18.363281 0 14.140625 15.28125 25.601563 34.132813 25.601563 18.847656 0 34.132812-11.460938 34.132812-25.601563 0-7.242187-4.0625-13.726562-10.53125-18.363281zm0 0" fill="#6b4842"/><g fill="#4d007e"><path d="m213.074219 221.847656c-2.183594 0-4.367188-.835937-6.03125-2.5-3.335938-3.335937-3.335938-8.730468 0-12.066406l17.066406-17.066406c3.335937-3.335938 8.730469-3.335938 12.066406 0 3.335938 3.335937 3.335938 8.730468 0 12.066406l-17.066406 17.066406c-1.671875 1.664063-3.859375 2.5-6.035156 2.5zm0 0"/><path d="m332.539062 145.050781c-2.183593 0-4.367187-.839843-6.03125-2.5-3.335937-3.339843-3.335937-8.730469 0-12.066406l17.066407-17.066406c3.335937-3.335938 8.730469-3.335938 12.066406 0 3.335937 3.335937 3.335937 8.726562 0 12.066406l-17.066406 17.066406c-1.671875 1.660157-3.859375 2.5-6.035157 2.5zm0 0"/><path d="m306.941406 315.714844c-2.183594 0-4.371094-.839844-6.035156-2.503906-3.335938-3.335938-3.335938-8.726563 0-12.0625l17.066406-17.066407c3.335938-3.339843 8.730469-3.339843 12.066406 0 3.335938 3.335938 3.335938 8.726563 0 12.0625l-17.066406 17.066407c-1.671875 1.664062-3.855468 2.503906-6.03125 2.503906zm0 0"/><path d="m127.742188 435.175781c-2.183594 0-4.367188-.835937-6.03125-2.5-3.335938-3.335937-3.335938-8.726562 0-12.0625l17.066406-17.066406c3.335937-3.339844 8.730468-3.339844 12.066406 0 3.335938 3.335937 3.335938 8.726563 0 12.0625l-17.066406 17.066406c-1.671875 1.664063-3.859375 2.5-6.035156 2.5zm0 0"/><path d="m170.410156 349.847656c-2.183594 0-4.371094-.839844-6.035156-2.503906-3.335938-3.335938-3.335938-8.726562 0-12.0625l17.066406-17.066406c3.335938-3.339844 8.730469-3.339844 12.066406 0 3.335938 3.335937 3.335938 8.726562 0 12.0625l-17.066406 17.066406c-1.671875 1.664062-3.855468 2.503906-6.03125 2.503906zm0 0"/><path d="m230.140625 443.710938c-2.183594 0-4.367187-.835938-6.03125-2.5-3.335937-3.335938-3.335937-8.730469 0-12.066407l17.066406-17.066406c3.335938-3.335937 8.730469-3.335937 12.066407 0 3.335937 3.335937 3.335937 8.730469 0 12.066406l-17.066407 17.066407c-1.671875 1.664062-3.859375 2.5-6.035156 2.5zm0 0"/><path d="m76.542969 273.046875c-2.183594 0-4.367188-.835937-6.03125-2.5-3.335938-3.335937-3.335938-8.730469 0-12.066406l17.066406-17.066407c3.335937-3.335937 8.730469-3.335937 12.066406 0 3.335938 3.335938 3.335938 8.730469 0 12.066407l-17.066406 17.066406c-1.671875 1.664063-3.859375 2.5-6.035156 2.5zm0 0"/><path d="m136.234375 255.980469c-1.425781 0-2.859375-.121094-4.292969-.359375-12.125-2.046875-21.265625-13.335938-21.265625-26.273438v-1.347656c0-2.660156-1.132812-5.136719-2.96875-6.441406-8.960937-6.417969-14.097656-15.640625-14.097656-25.308594 0-18.824219 19.140625-34.132812 42.667969-34.132812 23.523437 0 42.664062 15.308593 42.664062 34.132812 0 9.667969-5.136718 18.890625-14.09375 25.308594-1.835937 1.304687-2.972656 3.769531-2.972656 6.441406v2.382812c0 7.53125-3.316406 14.660157-9.09375 19.539063-4.667969 3.949219-10.523438 6.058594-16.546875 6.058594zm.042969-76.796875c-13.875 0-25.601563 7.816406-25.601563 17.066406 0 5.605469 4.363281 9.5625 6.964844 11.425781 6.324219 4.53125 10.101563 12.125 10.101563 20.324219v1.347656c0 4.632813 3.089843 8.773438 7.042968 9.4375 3.445313.589844 5.851563-.9375 6.96875-1.894531 1.945313-1.636719 3.054688-4.019531 3.054688-6.519531v-2.378906c0-8.199219 3.78125-15.796876 10.105468-20.328126 2.601563-1.859374 6.960938-5.816406 6.960938-11.425781 0-9.238281-11.722656-17.054687-25.597656-17.054687zm0 0"/><path d="m400.804688 247.449219c-23.523438 0-42.664063-15.308594-42.664063-34.132813 0-9.667968 5.136719-18.894531 14.097656-25.3125 1.832031-1.304687 2.96875-3.769531 2.96875-6.441406v-1.347656c0-12.9375 9.136719-24.226563 21.261719-26.273438 7.476562-1.253906 15.070312.828125 20.839844 5.699219 5.777344 4.882813 9.097656 12.007813 9.097656 19.542969v2.378906c0 2.664062 1.132812 5.136719 2.96875 6.441406 8.960938 6.417969 14.097656 15.644532 14.097656 25.3125 0 18.824219-19.148437 34.132813-42.667968 34.132813zm0-76.808594c-.476563 0-.980469.042969-1.5.136719-3.941407.664062-7.03125 4.804687-7.03125 9.4375v1.347656c0 8.199219-3.78125 15.796875-10.105469 20.328125-2.601563 1.859375-6.960938 5.816406-6.960938 11.425781 0 9.25 11.722657 17.066406 25.597657 17.066406s25.601562-7.816406 25.601562-17.066406c0-5.609375-4.363281-9.566406-6.964844-11.425781-6.324218-4.53125-10.101562-12.128906-10.101562-20.328125v-2.378906c0-2.5-1.109375-4.875-3.054688-6.519532-.957031-.804687-2.835937-2.023437-5.480468-2.023437zm0 0"/><path d="m262.722656 164.1875c-6.945312 0-13.996094-2.738281-19.277344-8.019531l-.9375-.929688c-1.894531-1.902343-4.4375-2.816406-6.683593-2.476562-10.84375 1.792969-21.007813-1.082031-27.851563-7.925781-6.683594-6.671876-9.652344-16.554688-8.148437-27.109376 1.398437-9.789062 6.433593-19.449218 14.179687-27.195312 7.75-7.75 17.410156-12.785156 27.195313-14.183594 10.523437-1.535156 20.421875 1.46875 27.101562 8.140625 6.84375 6.835938 9.738281 16.980469 7.929688 27.863281-.367188 2.226563.570312 4.785157 2.457031 6.664063l1.679688 1.671875c5.335937 5.332031 8.023437 12.714844 7.398437 20.265625-.628906 7.527344-4.53125 14.363281-10.707031 18.746094-4.226563 3.023437-9.25 4.488281-14.335938 4.488281zm-25.90625-28.566406c6.476563 0 12.910156 2.679687 17.753906 7.535156l.941407.929688c3.285156 3.300781 8.40625 4.050781 11.664062 1.722656 2.839844-2.023438 3.472657-4.796875 3.601563-6.273438.210937-2.53125-.683594-5-2.449219-6.765625l-1.671875-1.671875c-5.804688-5.804687-8.507812-13.851562-7.238281-21.519531.523437-3.160156.804687-9.046875-3.15625-12.988281v-.007813c-3.90625-3.910156-9.582031-3.757812-12.628907-3.320312-6.066406.871093-12.457031 4.273437-17.542968 9.351562-5.078125 5.078125-8.484375 11.46875-9.355469 17.542969-.433594 3.039062-.578125 8.722656 3.320313 12.621094 3.960937 3.96875 9.847656 3.671875 12.996093 3.160156 1.246094-.222656 2.507813-.316406 3.765625-.316406zm0 0"/><path d="m311.378906 427.429688c-11.070312 0-23.125-4.957032-32.648437-14.480469-16.632813-16.632813-19.335938-41.003907-6.035157-54.304688 6.828126-6.851562 16.984376-9.738281 27.863282-7.929687 2.25.316406 4.742187-.535156 6.65625-2.457032l.964844-.964843c9.136718-9.136719 23.59375-10.664063 33.601562-3.523438 6.1875 4.414063 10.085938 11.246094 10.710938 18.773438.621093 7.542969-2.074219 14.917969-7.398438 20.230469l-1.664062 1.675781c-1.902344 1.902343-2.84375 4.445312-2.476563 6.671875 1.800781 10.863281-1.082031 21.027344-7.925781 27.859375-5.683594 5.683593-13.398438 8.449219-21.648438 8.449219zm-17.160156-60.183594c-3.039062 0-6.71875.707031-9.457031 3.453125-6.542969 6.546875-3.777344 20.363281 6.035156 30.175781 9.8125 9.796875 23.617187 12.578125 30.171875 6.03125 3.960938-3.96875 3.679688-9.847656 3.15625-13.003906-1.269531-7.679688 1.425781-15.726563 7.230469-21.511719l1.664062-1.664063c1.78125-1.785156 2.667969-4.242187 2.464844-6.777343-.121094-1.472657-.75-4.246094-3.601563-6.277344-3.242187-2.3125-8.363281-1.554687-11.648437 1.707031l-.964844.960938c-5.785156 5.796875-13.847656 8.492187-21.511719 7.210937-.972656-.160156-2.191406-.304687-3.539062-.304687zm0 0"/><path d="m388.003906 349.847656c-21.167968 0-38.398437-17.230468-38.398437-38.402344 0-21.167968 17.230469-38.398437 38.398437-38.398437 11.820313 0 22.820313 5.425781 30.199219 14.875 2.40625 3.078125 2.40625 7.398437.011719 10.484375-.992188 1.273438-1.828125 2.613281-2.492188 3.976562-2.066406 4.234376-7.175781 5.984376-11.410156 3.945313-4.242188-2.066406-6-7.179687-3.933594-11.410156.085938-.179688.179688-.367188.265625-.539063-3.636719-2.746094-8.03125-4.257812-12.640625-4.257812-11.757812 0-21.332031 9.566406-21.332031 21.332031 0 11.769531 9.574219 21.335937 21.332031 21.335937 4.609375 0 9.003906-1.511718 12.640625-4.257812-.09375-.179688-.1875-.375-.28125-.554688-2.066406-4.242187-.308593-9.355468 3.933594-11.417968 4.238281-2.050782 9.34375-.308594 11.40625 3.933594.683594 1.398437 1.519531 2.738281 2.492187 4 2.40625 3.082031 2.40625 7.410156 0 10.488281-7.371093 9.4375-18.378906 14.867187-30.191406 14.867187zm0 0"/><path d="m302.675781 247.449219c-21.171875 0-38.402343-17.230469-38.402343-38.402344 0-21.167969 17.230468-38.398437 38.402343-38.398437 11.816407 0 22.816407 5.425781 30.195313 14.875 2.40625 3.078124 2.40625 7.398437.011718 10.484374-.992187 1.273438-1.828124 2.613282-2.492187 3.976563-2.066406 4.234375-7.175781 5.984375-11.410156 3.945313-4.242188-2.066407-6-7.179688-3.933594-11.410157.085937-.179687.179687-.367187.265625-.539062-3.636719-2.746094-8.03125-4.257813-12.636719-4.257813-11.761719 0-21.335937 9.566406-21.335937 21.332032 0 11.769531 9.574218 21.335937 21.335937 21.335937 4.605469 0 9-1.511719 12.636719-4.257813-.09375-.179687-.1875-.375-.28125-.554687-2.066406-4.242187-.308594-9.355469 3.933594-11.417969 4.238281-2.058594 9.34375-.308594 11.40625 3.933594.683594 1.398438 1.519531 2.738281 2.492187 4 2.40625 3.082031 2.40625 7.410156 0 10.488281-7.371093 9.4375-18.378906 14.867188-30.1875 14.867188zm0 0"/><path d="m255.878906 477.859375c-24.023437 0-47.691406-3.890625-70.699218-11.636719-2.234376-.753906-4.070313-2.398437-5.042969-4.550781-.980469-2.148437-1.023438-4.613281-.117188-6.800781l80.414063-194.332032c1.621094-3.933593-.722656-6.71875-1.492188-7.476562-.757812-.757812-3.558594-3.097656-7.476562-1.492188l-194.324219 80.414063c-2.175781.90625-4.644531.871094-6.792969-.117187-2.152344-.972657-3.796875-2.800782-4.558594-5.042969-11.039062-32.792969-14.25-66.960938-9.519531-101.539063 14.078125-103.054687 99.691407-183.207031 203.558594-190.585937 64.46875-4.703125 127.585937 18.890625 173.101563 64.425781 45.515624 45.53125 68.976562 108.625 64.375 173.121094-7.414063 103.847656-87.582032 189.425781-190.628907 203.507812-10.308593 1.40625-20.582031 2.105469-30.796875 2.105469zm-56.523437-25.085937c27.578125 7.960937 56.128906 10.019531 85.015625 6.058593 95.09375-12.980469 169.066406-91.960937 175.910156-187.808593 4.25-59.550782-17.40625-117.816407-59.425781-159.835938-42.007813-42.03125-100.230469-63.605469-159.824219-59.472656-95.847656 6.816406-174.863281 80.78125-187.859375 175.894531-3.949219 28.890625-1.910156 57.453125 6.058594 85.046875l185.714843-76.855469c9.113282-3.773437 19.105469-1.777343 26.070313 5.179688 6.972656 6.96875 8.960937 16.960937 5.195313 26.078125zm41.078125-409.566407h.085937zm0 0"/><path d="m138.625 511.976562c-1.109375 0-2.21875-.214843-3.269531-.648437-60.519531-25.070313-109.609375-74.164063-134.671875-134.671875-.871094-2.089844-.871094-4.445312 0-6.535156s2.527344-3.746094 4.625-4.617188l221.863281-91.808594c3.183594-1.339843 6.851563-.589843 9.292969 1.851563s3.175781 6.109375 1.851562 9.300781l-91.808594 221.863282c-.863281 2.089843-2.527343 3.746093-4.617187 4.617187-1.046875.433594-2.15625.648437-3.265625.648437zm-118.757812-134.03125c23.039062 50.183594 64.015624 91.160157 114.199218 114.199219l80.613282-194.8125zm0 0"/><path d="m255.835938 511.992188c-28.355469.007812-56.269532-4.683594-83.34375-14.035157-2.21875-.769531-4.027344-2.414062-4.992188-4.558593-.964844-2.140626-1.007812-4.582032-.113281-6.757813l93.054687-225.964844c1.621094-3.9375-.730468-6.71875-1.5-7.476562-.757812-.761719-3.558594-3.125-7.484375-1.460938l-225.546875 94.363281c-2.160156.902344-4.609375.886719-6.761718-.078124-2.140626-.949219-3.804688-2.75-4.589844-4.96875-13.585938-38.558594-17.6875-78.914063-12.203125-119.949219 15.414062-115.078125 106.5625-205.214844 221.667969-219.175781 79.222656-9.582032 156.773437 16.921874 212.792968 72.816406 56.019532 55.882812 82.753906 133.363281 73.34375 212.578125-13.664062 114.921875-103.390625 206.28125-218.203125 222.160156-12.101562 1.671875-24.148437 2.507813-36.121093 2.507813zm-69.164063-27.363282c33.296875 10.128906 67.890625 12.78125 102.9375 7.960938 107.132813-14.832032 190.851563-100.0625 203.601563-207.28125 8.796874-73.972656-16.152344-146.316406-68.445313-198.480469-52.289063-52.164063-124.71875-76.996094-198.6875-67.949219-107.386719 13.019532-192.421875 97.125-206.792969 204.496094-4.71875 35.292969-1.851562 70.039062 8.535156 103.421875l217.058594-90.808594c9.097656-3.789062 19.105469-1.851562 26.109375 5.109375 7 6.957032 9.011719 16.949219 5.25 26.078125zm38.375-474.226562h.085937zm0 0"/><path d="m151.695312 480.378906c-1.238281 0-2.464843-.265625-3.601562-.804687-50.8125-23.652344-93.105469-64.089844-119.070312-113.832031-1.109376-2.125-1.273438-4.617188-.460938-6.867188.820312-2.253906 2.542969-4.054688 4.761719-4.96875l193.847656-80.210938c3.183594-1.339843 6.851563-.589843 9.292969 1.851563s3.175781 6.109375 1.851562 9.300781l-78.734375 190.265625c-.890625 2.148438-2.621093 3.839844-4.789062 4.683594-.996094.386719-2.046875.582031-3.097657.582031zm-103.054687-114.335937c23.003906 40.085937 57.554687 73.070312 98.652344 94.136719l67.386719-162.847657zm0 0"/><path d="m119.210938 401.042969c-23.527344 0-42.667969-15.308594-42.667969-34.132813 0-9.667968 5.136719-18.890625 14.097656-25.308594 1.835937-1.304687 2.96875-3.769531 2.96875-6.441406 0-3.449218 2.082031-7.066406 5.273437-8.378906l30.320313-12.542969c3.5-1.46875 7.515625-.417969 9.898437 2.515625 3.6875 4.558594 5.714844 10.25 5.714844 16.027344v2.378906c0 2.664063 1.136719 5.136719 2.972656 6.441406 8.957032 6.417969 14.09375 15.640626 14.09375 25.308594-.007812 18.824219-19.15625 34.132813-42.671874 34.132813zm-9.15625-60.421875c-1.316407 6.160156-4.660157 11.410156-9.488282 14.863281-2.605468 1.863281-6.964844 5.820313-6.964844 11.425781 0 9.25 11.726563 17.066406 25.601563 17.066406s25.597656-7.816406 25.597656-17.066406c0-5.605468-4.359375-9.5625-6.960937-11.425781-6.332032-4.53125-10.105469-12.125-10.105469-20.324219v-1.851562zm0 0"/></g></svg>