<svg height="512pt" viewBox="-154 0 512 512.00262" width="512pt" xmlns="http://www.w3.org/2000/svg"><path d="m156.707031 140.179688c-20.472656-16.859376-48.359375-26.136719-73.457031-25.316407l-17.734375-74.914062c-3.152344-13.3125-12.113281-23.808594-23.5625-29.433594-12.855469-6.300781-27.109375 5.863281-23.820313 19.75 1.148438 4.835937 3.902344 9.496094 8.398438 11.652344 2.320312 1.113281 4.140625 3.230469 4.785156 5.921875l17.980469 75.964844c-6.902344 4.027343-12.871094 9.4375-17.433594 16.367187-15.996093 24.269531-25.40625 46.558594-22.511719 71.628906 1.5-.324219 2.992188-.695312 4.5-1.03125l47.945313 1.085938h17.65625c.707031-.175781 8.121094.175781 8.828125 0v-26.484375s-2.390625-2.578125 0-8.828125l26.484375 26.484375c.359375-.089844 21.734375 6.777344 8.828125-8.828125l26.484375-8.828125 26.429687-15.027344c-4.078124-11.261719-10.089843-22.164062-19.800781-30.164062zm0 0" fill="#23a24d"/><path d="m179.410156 178.160156c-.730468-2.542968-1.570312-5.085937-2.488281-7.621094-.449219-.042968-.863281-.195312-1.28125-.398437l-50.6875-11.261719-14.265625 28.53125c-.363281.089844-.714844.175782-1.078125.273438l-27.445313-27.445313c-2.394531 6.25-3.824218 13.496094-3.824218 13.496094l-3.785156 22.714844c-.707032.175781-1.40625.355469-2.109376.53125l-35.773437-20.4375-22.828125 34.234375c-1.394531.308594-2.789062.652344-4.183594.960937 1.855469 16.183594 8.773438 33.503907 22.519532 53.296875 40.589843 58.464844 77.792968 78.980469 55.4375 129.441406-18.476563 41.703126-19.109376 68.273438-16.410157 83.210938 1.828125 10.117188 7.953125 17.65625 17.082031 22.945312 15.714844 9.09375 15.714844-9.101562 15.714844-9.101562-9.050781-17.460938 9.023438-33.289062 9.023438-33.289062 30.542968-29.46875 50.34375-61.003907 63.039062-91.121094 25.714844-61.054688 25.980469-128.632813 3.34375-188.960938zm0 0" fill="#dd352e"/><g fill="#4d007e"><path d="m9.351562 220.636719c-1.828124 0-3.628906-.5625-5.136718-1.648438-2.03125-1.449219-3.347656-3.691406-3.640625-6.171875-3.566407-30.914062 10.082031-56.515625 23.90625-77.492187 3.964843-6.011719 8.925781-11.210938 14.796875-15.492188l-16.5625-69.953125c-6.460938-3.097656-11.261719-9.507812-13.167969-17.574218-2.367187-9.984376 1.179687-20.199219 9.269531-26.652344 7.8125-6.230469 18.15625-7.398438 27.019532-3.0625 14.320312 7.035156 24.613281 19.90625 28.269531 35.328125l16.125 68.132812c25.621093.910157 52.09375 10.851563 72.089843 27.316407 9.765626 8.039062 17.125 19.15625 22.484376 33.96875 1.09375 3.035156.460937 6.417968-1.667969 8.835937-2.117188 2.417969-5.386719 3.488281-8.546875 2.789063l-44.816406-9.964844-11.1875 22.367187c-1.164063 2.332031-3.300782 4.027344-5.824219 4.636719l-.882813.210938c-3.039062.792968-6.277344-.0625-8.503906-2.292969l-16.683594-16.660157-3.441406 20.648438c-.582031 3.488281-3.179688 6.285156-6.605469 7.125l-2.109375.527344c-2.195312.546875-4.519531.214844-6.480468-.90625l-28.617188-16.359375-18.25 27.382812c-1.269531 1.90625-3.230469 3.242188-5.460938 3.726563l-4.503906 1.03125c-.617187.132812-1.246094.203125-1.871094.203125zm25.386719-202.996094c-2.3125 0-4.09375 1.15625-4.914062 1.808594-2.101563 1.679687-4.027344 4.875-3.101563 8.785156.65625 2.773437 2.050782 4.96875 3.628906 5.730469 4.828126 2.3125 8.316407 6.628906 9.554688 11.84375l17.980469 75.964844c.890625 3.789062-.785157 7.707031-4.140625 9.667968-5.976563 3.488282-10.859375 8.058594-14.511719 13.601563-10.179687 15.433593-16.535156 28.640625-19.527344 41.035156l9.628907-14.445313c2.570312-3.863281 7.699218-5.066406 11.726562-2.761718l26.605469 15.210937 1.96875-11.792969c.113281-.59375 1.660156-8.335937 4.289062-15.203124 1.070313-2.796876 3.480469-4.863282 6.402344-5.480469 2.921875-.671875 5.964844.273437 8.085937 2.390625l19.410157 19.414062 9.234375-18.476562c1.8125-3.621094 5.863281-5.519532 9.816406-4.671875l33.75 7.511719c-2.796875-4.261719-5.957031-7.839844-9.523438-10.769532 0 0 0 0 0-.007812-18.390624-15.140625-44.324218-23.949219-67.5625-23.316406-4.253906.382812-7.910156-2.699219-8.878906-6.785157l-17.734375-74.90625c-2.4375-10.265625-9.316406-18.847656-18.867187-23.554687-1.183594-.570313-2.304688-.792969-3.320313-.792969zm0 0"/><path d="m95.988281 512.003906c-3.328125 0-7.371093-.972656-12.128906-3.734375-11.769531-6.808593-19.148437-16.84375-21.347656-29.007812-2.921875-16.175781-2.339844-44.636719 17.03125-88.359375 14.671875-33.121094.316406-50.867188-25.742188-83.070313-8.777343-10.839843-18.714843-23.128906-28.878906-37.765625-14.078125-20.289062-21.945313-39.039062-24.035156-57.328125-.515625-4.484375 2.445312-8.644531 6.859375-9.625l.703125-.15625 20.878906-31.324219c2.570313-3.863281 7.699219-5.066406 11.722656-2.761718l26.609375 15.210937 1.96875-11.792969c.113282-.59375 1.660156-8.335937 4.289063-15.203124 1.070312-2.796876 3.476562-4.863282 6.402343-5.480469 2.921876-.671875 5.964844.273437 8.085938 2.390625l19.410156 19.414062 9.234375-18.476562c1.808594-3.621094 5.863281-5.519532 9.816407-4.671875l50.691406 11.265625c.449218.105468.898437.238281 1.324218.414062 2.902344.652344 5.3125 2.753906 6.347657 5.613282.933593 2.605468 1.808593 5.21875 2.566406 7.824218 23.84375 63.789063 22.566406 133.078125-3.609375 195.164063-14.742188 34.988281-36.628906 66.632812-65.042969 94.046875-.804687.722656-13.03125 11.855468-7.3125 22.878906.644531 1.253906.992188 2.648438.992188 4.0625 0 2.207031-.441407 13.445312-9.085938 18.433594-1.914062 1.101562-4.492187 2.039062-7.75 2.039062zm-76.457031-294.472656c2.777344 13.292969 9.328125 27.25 19.886719 42.460938 9.800781 14.117187 19.519531 26.132812 28.101562 36.734374 27.398438 33.863282 47.191407 58.332032 28.160157 101.335938-17.558594 39.617188-18.285157 64.320312-15.800782 78.0625 1.277344 7.109375 5.472656 12.625 12.816406 16.871094.882813.511718 1.5625.828125 2.082032 1.023437.082031-.289062.140625-.601562.203125-.917969-7.421875-17.71875 3.945312-34.269531 12.210937-41.5 26.375-25.46875 46.910156-55.136718 60.71875-87.917968 24.453125-58.007813 25.597656-122.792969 3.230469-182.417969-.082031-.210937-.152344-.441406-.222656-.652344-.253907-.882812-.519531-1.757812-.800781-2.640625l-40.363282-8.976562-11.183594 22.367187c-1.164062 2.332031-3.300781 4.027344-5.828124 4.636719l-.882813.210938c-3.035156.792968-6.277344-.0625-8.5-2.292969l-16.667969-16.660157-3.441406 20.648438c-.582031 3.488281-3.179688 6.285156-6.605469 7.125l-2.109375.527344c-2.195312.546875-4.519531.214844-6.480468-.90625l-28.617188-16.359375-18.25 27.382812c-.464844.699219-1.023438 1.324219-1.65625 1.855469zm158.238281-55.765625h.007813s0 0-.007813 0zm0 0"/><path d="m127.996094 392.542969c-1.5625 0-3.140625-.414063-4.578125-1.289063-4.167969-2.53125-5.492188-7.960937-2.949219-12.128906 5.65625-9.304688 10.671875-19.113281 14.917969-29.167969 9.144531-21.707031 14.539062-44.605469 16.015625-68.042969.308594-4.875 4.5-8.433593 9.363281-8.265624 4.867187.308593 8.5625 4.503906 8.253906 9.367187-1.605469 25.433594-7.449219 50.257813-17.363281 73.800781-4.582031 10.851563-9.992188 21.445313-16.101562 31.472656-1.667969 2.746094-4.582032 4.253907-7.558594 4.253907zm0 0"/><path d="m158.507812 247.164062c-4.335937 0-8.113281-3.183593-8.730468-7.597656-1.703125-12.21875-4.503906-24.417968-8.335938-36.257812-1.5-4.644532 1.050782-9.621094 5.695313-11.113282 4.644531-1.5 9.613281 1.050782 11.113281 5.683594 4.140625 12.828125 7.179688 26.027344 9.023438 39.242188.671874 4.835937-2.691407 9.292968-7.523438 9.964844-.421875.054687-.835938.078124-1.242188.078124zm0 0"/></g></svg>