<svg height="512pt" viewBox="-17 0 512 512.00062" width="512pt" xmlns="http://www.w3.org/2000/svg"><path d="m469.347656 324.269531c0-17.066406-8.53125-85.332031-102.398437-127.996093-88.019531-40.011719-96.613281-116.929688-95.554688-152.183594-.871093.164062-1.722656.378906-2.609375.480468-20.539062 2.21875-41.660156 3.285157-62.234375.597657.84375 35.71875-8.457031 111.503906-95.589843 151.105469-93.863282 42.664062-102.398438 110.929687-102.398438 127.996093 0 17.066407-8.53125 179.199219 230.398438 179.199219 238.929687 0 230.386718-162.132812 230.386718-179.199219zm0 0" fill="#f2ecbf"/><path d="m272.351562 68.273438c-1.707031-15.972657-.914062-29.046876-.128906-36.339844.640625-5.957032.878906-11.949219.894532-17.929688l.011718-5.460937-68.300781 17.066406s3.394531 17.816406.734375 42.664063zm0 0" fill="#b5a351"/><g fill="#4d007e"><path d="m238.953125 512c-86.519531 0-151.082031-20.921875-191.886719-62.199219-21.855468-22.089843-47.75-61.515625-47.050781-123.910156l.0078125-1.621094c0-8.898437 3.0117185-88.316406 107.3984375-135.761719 108.804687-49.457031 89.878906-156.753906 89.019531-161.304687-.839844-4.445313 1.925782-8.78125 6.3125-9.871094l68.300782-17.066406c2.550781-.65625 5.253906-.078125 7.320312 1.5625 2.074219 1.613281 3.277344 4.101563 3.277344 6.730469l-.035156 17.066406c0 .53125-.050782 1.066406-.152344 1.589844-.863282 4.539062-19.796875 111.835937 89.007812 161.292968 104.386719 47.453126 107.398438 126.863282 107.398438 135.761719l.011718 1.621094c.699219 62.394531-25.207031 101.820313-47.054687 123.910156-40.796875 41.277344-105.359375 62.199219-191.875 62.199219zm-24.730469-479.949219c2.671875 28.484375 3.464844 125.078125-99.734375 171.988281-94.667969 43.03125-97.398437 112.457032-97.398437 120.230469l-.007813 1.820313c-.632812 56.496094 22.558594 91.925781 42.117188 111.714844 37.496093 37.902343 97.972656 57.128906 179.753906 57.128906s142.265625-19.226563 179.75-57.128906c19.558594-19.78125 42.75-55.21875 42.121094-111.714844l-.007813-1.820313c0-7.773437-2.730468-77.199219-97.398437-120.230469-115.753907-52.617187-100.675781-167.753906-98.867188-179.136718l.007813-5.429688zm0 0"/><path d="m238.953125 512c-35.753906 0-76.800781-13.574219-76.800781-119.464844 0-4.71875 3.824218-8.53125 8.535156-8.53125s8.53125 3.8125 8.53125 8.53125c0 102.398438 38.859375 102.398438 59.734375 102.398438 20.871094 0 59.730469 0 59.730469-102.398438 0-4.71875 3.824218-8.53125 8.535156-8.53125s8.53125 3.8125 8.53125 8.53125c0 105.890625-41.035156 119.464844-76.796875 119.464844zm0 0"/><path d="m242.1875 511.957031c-4.660156 0-8.464844-3.738281-8.535156-8.402343-.066406-4.6875 3.652344-8.550782 8.335937-8.664063 18.40625-.417969 56.695313-1.296875 56.695313-102.355469 0-4.71875 3.824218-8.53125 8.535156-8.53125s8.53125 3.8125 8.53125 8.53125c0 53.214844-10.648438 82.953125-25.242188 99.4375 11.375-1.363281 22.238282-3.207031 32.546876-5.519531l.1875-.164063c1.484374-1.253906 2.96875-2.515624 4.429687-3.871093 37.972656-35.738281 60.867187-77.015625 64.476563-116.265625.425781-4.695313 4.523437-8.140625 9.277343-7.714844 4.691407.433594 8.148438 4.582031 7.710938 9.285156-3.976563 43.390625-28.765625 88.539063-69.773438 127.125-1.671875 1.578125-3.378906 3.023438-5.085937 4.464844l-1.726563 1.46875c-1.046875.894531-2.292969 1.527344-3.632812 1.839844-25.875 5.992187-55.03125 9.132812-86.671875 9.335937-.027344 0-.042969 0-.058594 0zm0 0"/><path d="m80.6875 332.804688c-.699219 0-1.410156-.085938-2.125-.265626-4.566406-1.167968-7.3125-5.820312-6.152344-10.386718 6.910156-27.023438 22.433594-52.253906 46.128906-74.980469 6.042969-5.792969 12.527344-10.75 18.808594-15.546875 6.742188-5.152344 13.113282-10.015625 18.875-15.785156 56.574219-56.585938 57.230469-112.878906 57.230469-113.433594 0-4.71875 3.824219-8.53125 8.535156-8.53125 4.710938 0 8.53125 3.8125 8.53125 8.53125 0 2.585938-.707031 63.972656-62.230469 125.5-6.570312 6.578125-13.695312 12.011719-20.589843 17.277344-6.171875 4.71875-12 9.164062-17.347657 14.304687-21.367187 20.488281-35.304687 42.996094-41.421874 66.898438-.972657 3.855469-4.4375 6.417969-8.242188 6.417969zm0 0"/><path d="m173.835938 358.394531c-.375 0-.761719-.027343-1.144532-.078125-4.667968-.621094-7.953125-4.914062-7.320312-9.589844 9.898437-73.835937 23.125-105.5625 58.980468-141.421874 3.335938-3.335938 8.730469-3.335938 12.066407 0 3.335937 3.335937 3.335937 8.730468 0 12.066406-33.082031 33.082031-44.722657 61.378906-54.136719 131.625-.570312 4.285156-4.238281 7.398437-8.445312 7.398437zm0 0"/><path d="m235.726562 511.957031c-.015624 0-.035156 0-.050781 0-31.566406-.195312-60.671875-3.335937-86.527343-9.300781-1.339844-.308594-2.585938-.9375-3.636719-1.84375l-1.695313-1.441406c-1.742187-1.46875-3.464844-2.933594-5.164062-4.53125-32.484375-30.566406-54.859375-65.140625-64.691406-99.992188-1.277344-4.53125 1.359374-9.25 5.898437-10.527344 4.539063-1.257812 9.25 1.371094 10.53125 5.894532 8.992187 31.863281 29.71875 63.75 59.960937 92.203125 1.476563 1.390625 2.976563 2.660156 4.480469 3.921875l.160157.148437c10.25 2.292969 21.042968 4.109375 32.335937 5.476563-11.984375-13.523438-21.335937-36-24.21875-73.164063-.359375-4.703125 3.148437-8.796875 7.851563-9.164062 4.683593-.289063 8.804687 3.148437 9.164062 7.851562 5.902344 76.269531 39.601562 77.042969 55.796875 77.410157 4.6875.113281 8.40625 3.976562 8.335937 8.664062-.074218 4.648438-3.871093 8.394531-8.53125 8.394531zm0 0"/><path d="m272.351562 76.808594h-66.789062c-2.425781 0-4.726562-1.023438-6.347656-2.832032-1.625-1.800781-2.398438-4.199218-2.136719-6.605468 2.492187-23.3125-.605469-39.996094-.636719-40.15625-.847656-4.449219 1.925782-8.78125 6.3125-9.875l68.300782-17.066406c2.550781-.65625 5.253906-.078126 7.320312 1.5625 2.074219 1.613281 3.277344 4.105468 3.277344 6.730468l-.035156 17.066406c0 .53125-.050782 1.058594-.152344 1.570313-.027344.171875-3.105469 17.042969-.640625 40.175781.257812 2.40625-.519531 4.804688-2.132813 6.613282-1.613281 1.792968-3.925781 2.816406-6.339844 2.816406zm-57.539062-17.066406h48.28125c-1.023438-18.253907.886719-31.472657 1.457031-34.882813l.007813-5.386719-50.285156 12.570313c.640624 6.296875 1.203124 15.957031.539062 27.699219zm0 0"/></g></svg>