<svg height="512pt" viewBox="-31 0 512 512.01328" width="512pt" xmlns="http://www.w3.org/2000/svg"><path d="m440.84375 172.878906c-5.765625-50.476562-48.742188-89.738281-99.492188-92.039062-.179687-.007813-.351562.019531-.539062.007812-4.195312-19.707031-35.753906-36.027344-78.457031-42.21875l-34.207031-2.628906c-1.195313-.011719-2.371094-.074219-3.574219-.074219-60.984375 0-110.972657 19.78125-116.246094 45.003907-50.332031 2.765624-92.792969 41.796874-98.523437 91.949218-2.09375 18.332032-.59375 43.988282 9.664062 69.652344 35.933594 89.828125 35.933594 80.84375 44.914062 152.707031 4.257813 34.078125 33.246094 134.203125 114.234376 88.085938 13.988281 12.4375 29.328124 19.707031 45.957031 19.707031 17.085937 0 32.285156-7.644531 45.632812-20.734375 82.390625 48.695313 111.761719-52.726563 116.058594-87.058594 8.980469-71.863281 8.980469-62.878906 44.914063-152.707031 10.265624-25.664062 11.757812-51.320312 9.664062-69.652344zm0 0" fill="#dd352e"/><path d="m187.042969 139.632812c.035156-.019531.074219-.019531.109375-.035156 9.097656-4.214844 19.304687-6.296875 29.5-6.296875 2.53125 0 5.011718.179688 7.453125.4375 1.125.117188 2.230469.28125 3.335937.441407.960938.152343 1.902344.324218 2.847656.511718 6.949219 1.3125 13.679688 3.503906 19.742188 6.820313 2.75 1.5 5.703125 2.207031 8.613281 2.207031 1.015625 0 1.996094-.222656 2.984375-.394531 3.582032-4.347657 8.28125-8.066407 13.699219-11.09375 3.222656-8.289063-.039063-17.847657-8.039063-22.230469-7.476562-4.097656-15.488281-7.160156-23.761718-9.273438l25.105468-82.765624c-1.121093-13-35.640624-10.914063-34.230468 0l-27.675782 79.894531c-11.957031 1.085937-23.742187 4.078125-34.675781 9.125-3.179687 1.472656-5.675781 3.773437-7.453125 6.503906 11.550782 6.007813 19.878906 15.277344 22.445313 26.148437zm0 0" fill="#23a24d"/><g fill="#4d007e"><path d="m258.089844 157.355469c-2.273438 0-4.484375-.863281-6.152344-2.433594-8.527344-8.03125-21.390625-12.628906-35.285156-12.628906-9.117188 0-17.902344 2.011719-25.414063 5.800781-2.46875 1.257812-5.390625 1.292969-7.894531.097656-2.507812-1.183594-4.320312-3.464844-4.921875-6.179687-3.226563-14.621094-21.597656-25.230469-43.675781-25.230469-4.957032 0-8.980469-4.015625-8.980469-8.984375 0-4.964844 4.023437-8.980469 8.980469-8.980469 26.292968 0 48.417968 11.683594 57.605468 29.398438 21.003907-7.042969 46.675782-4.003906 64.085938 7.464844 11.21875-11.984376 29.28125-18.898438 50.300781-18.898438 4.960938 0 8.984375 4.015625 8.984375 8.980469 0 4.96875-4.023437 8.984375-8.984375 8.984375-18.675781 0-34.347656 6.953125-40.898437 18.164062-1.382813 2.363282-3.761719 3.960938-6.464844 4.347656-.433594.070313-.863281.097657-1.285156.097657zm0 0"/><path d="m258.636719 152.703125c-4.492188 0-8.957031-1.140625-12.917969-3.304687-4.914062-2.695313-10.660156-4.671876-17.09375-5.875-.96875-.191407-1.796875-.34375-2.640625-.488282-1.148437-.160156-1.96875-.277344-2.792969-.359375-11.167968-1.21875-22.671875.628907-32.277344 5.066407-.3125.15625-.652343.28125-.996093.398437-2.171875.742187-4.582031.617187-6.691407-.378906-2.488281-1.160157-4.304687-3.394531-4.941406-6.070313-1.867187-7.941406-8.371094-15.316406-17.839844-20.230468-2.246093-1.175782-3.898437-3.234376-4.542968-5.6875-.648438-2.453126-.226563-5.054688 1.148437-7.183594 2.777344-4.277344 6.65625-7.65625 11.210938-9.765625 9.898437-4.582031 20.570312-7.679688 31.808593-9.253907l25.3125-73.074218c.25-4.25 2.46875-8.164063 6.324219-11.03125 8.171875-6.0625 24.441407-7.292969 34.789063-2.621094 6.59375 2.964844 10.519531 8.046875 11.066406 14.328125.101562 1.140625-.015625 2.289063-.347656 3.386719l-22.484375 74.140625c5.917969 2.03125 11.558593 4.511719 16.859375 7.414062 11.785156 6.449219 16.988281 20.785157 12.089844 33.371094-.753907 1.9375-2.164063 3.554687-3.976563 4.570313-4.644531 2.605468-8.402344 5.625-11.160156 8.972656-1.371094 1.679687-3.304688 2.792968-5.441407 3.152344-1.816406.335937-3.125.523437-4.464843.523437zm-41.984375-28.386719c2.863281 0 5.65625.1875 8.414062.496094 1.015625.105469 2.078125.25 3.136719.402344 1.769531.277344 2.828125.46875 3.890625.683594 8.144531 1.527343 15.683594 4.140624 22.25 7.734374.960938.519532 1.964844.863282 3.015625 1.003907 2.921875-3 6.335937-5.757813 10.1875-8.21875.28125-3.441407-1.4375-6.835938-4.5625-8.542969-6.609375-3.609375-13.894531-6.457031-21.675781-8.441406-2.371094-.601563-4.402344-2.15625-5.605469-4.296875-1.203125-2.136719-1.480469-4.679688-.773437-7.011719l23.984374-79.078125c-3.601562-1.542969-12.144531-1.410156-15.636718.324219-.082032.519531-.207032 1.023437-.386719 1.527344l-27.675781 79.890624c-1.152344 3.335938-4.152344 5.6875-7.671875 6.011719-9.621094.878907-18.765625 3.035157-27.253907 6.414063 5.101563 4.328125 9.144532 9.332031 11.964844 14.8125 7.796875-2.453125 16.042969-3.710938 24.398438-3.710938zm0 0"/><path d="m224.574219 512.011719c-16.285157 0-32.09375-6.015625-47.070313-17.890625-23.964844 12.152344-45.890625 13.390625-65.242187 3.699218-46.511719-23.300781-56.382813-98.28125-56.789063-101.46875-7.464844-59.699218-8.316406-61.800781-30.207031-115.535156-3.980469-9.765625-8.632813-21.199218-14.132813-34.953125-9.25-23.121093-12.988281-50.097656-10.246093-74 5.925781-51.921875 48.746093-93.664062 100.820312-99.394531 12.074219-26.742188 61.667969-45.523438 122.867188-45.523438l3.710937.070313c2.882813.042969 5.566406 1.464844 7.222656 3.828125 1.652344 2.359375 2.074219 5.378906 1.128907 8.09375l-21.421875 61.851562c-1.152344 3.335938-4.152344 5.6875-7.671875 6.011719-9.621094.878907-18.765625 3.035157-27.253907 6.414063 5.101563 4.328125 9.144532 9.332031 11.964844 14.8125 10.464844-3.296875 22.015625-4.394532 32.8125-3.214844 1.015625.105469 2.078125.25 3.136719.402344 1.769531.277344 2.828125.46875 3.890625.683594 8.144531 1.527343 15.683594 4.140624 22.25 7.734374.960938.519532 1.964844.863282 3.015625 1.003907 2.921875-3 6.335937-5.757813 10.1875-8.21875.28125-3.441407-1.4375-6.835938-4.5625-8.542969-6.609375-3.609375-13.894531-6.457031-21.675781-8.441406-2.371094-.601563-4.402344-2.15625-5.605469-4.296875-1.203125-2.136719-1.480469-4.679688-.773437-7.011719l18.839843-62.101562c1.292969-4.257813 5.488281-6.988282 9.886719-6.277344 43.378906 6.289062 74.449219 22.285156 83.730469 42.570312 53.097656 5.246094 96.394531 47.050782 102.394531 99.546875 2.730469 23.902344-1.007812 50.878907-10.25 74-5.496094 13.742188-10.160156 25.1875-14.128906 34.953125-21.890625 53.734375-22.746094 55.835938-30.210938 115.535156-.394531 3.199219-10.347656 78.722657-57.246094 101.738282-19.691406 9.675781-42.011718 8.058594-66.425781-4.777344-14.453125 12.414062-30.210937 18.699219-46.945312 18.699219zm-45.957031-37.671875c2.15625 0 4.285156.773437 5.976562 2.273437 26.28125 23.390625 55.007812 23.113281 79.332031-.71875 2.914063-2.847656 7.367188-3.378906 10.863281-1.320312 21.164063 12.519531 39.757813 15.007812 55.234376 7.402343 31.773437-15.597656 44.941406-68.703124 47.339843-87.84375 7.761719-62.0625 9.089844-65.332031 31.394531-120.082031 3.96875-9.738281 8.605469-21.144531 14.09375-34.84375 11.613282-29.042969 10.222657-55.335937 9.082032-65.304687-5.238282-45.832032-44.347656-81.96875-90.980469-84.078125-4.085937-.191407-8.066406-3.101563-8.910156-7.097657-2.476563-11.660156-23.328125-26.796874-63.34375-33.964843l-13.941407 45.957031c5.917969 2.03125 11.558594 4.507812 16.859376 7.410156 11.785156 6.449219 16.984374 20.785156 12.089843 33.371094-.753906 1.941406-2.164062 3.558594-3.980469 4.574219-4.640624 2.601562-8.398437 5.621093-11.15625 8.972656-1.371093 1.679687-3.304687 2.792969-5.441406 3.152344-1.824218.324219-3.136718.519531-4.472656.519531-4.492188 0-8.957031-1.140625-12.917969-3.304688-4.914062-2.695312-10.664062-4.671874-17.09375-5.875-.972656-.1875-1.796875-.339843-2.640625-.484374-1.152344-.160157-1.96875-.277344-2.796875-.359376-11.164062-1.222656-22.671875.628907-32.273437 5.066407-.3125.152343-.65625.277343-.996094.394531-2.183594.738281-4.582031.621094-6.691406-.375-2.488282-1.160156-4.304688-3.398438-4.941406-6.074219-1.871094-7.941406-8.371094-15.316406-17.839844-20.230469-2.246094-1.175781-3.898438-3.230468-4.546875-5.683593-.644531-2.453125-.222657-5.058594 1.152343-7.1875 2.773438-4.273438 6.65625-7.652344 11.207032-9.765625 9.902344-4.578125 20.574218-7.679688 31.808594-9.25l15.425781-44.519532c-54.914063 1.859376-94.769531 20.375-98.390625 37.710938-.835938 3.980469-4.238282 6.90625-8.300782 7.121094-46.179687 2.535156-84.902343 38.65625-90.085937 84.007812-1.140625 9.953125-2.535156 36.253906 9.082031 65.304688 5.480469 13.699218 10.121094 25.109375 14.09375 34.84375 22.304688 54.75 23.632813 58.019531 31.394532 120.082031 2.378906 19.015625 15.449218 71.828125 47.007812 87.636719 15.144531 7.589844 33.261719 5.488281 53.867188-6.242188 1.375-.808594 2.910156-1.195312 4.4375-1.195312zm0 0"/><path d="m224.574219 512.011719c-3.199219 0-6.441407-.257813-9.628907-.78125-45.804687-7.570313-80.199218-67.082031-80.199218-138.449219l-.054688-6.855469c-.132812-13.070312-.449218-43.683593.054688-87.574219.054687-4.957031 3.960937-8.710937 9.082031-8.875 4.957031.066407 8.9375 4.125 8.882813 9.09375-.503907 43.691407-.1875 74.160157-.054688 87.175782l.054688 7.035156c0 61.648438 28.539062 114.671875 64.972656 120.699219 4.742187.773437 9.0625.757812 13.589844.027343.21875-.035156.730468-.117187.945312-.132812 24.960938-4.195312 48.191406-33.039062 58.46875-73.398438 1.222656-4.804687 6.125-7.707031 10.921875-6.484374 4.808594 1.21875 7.71875 6.117187 6.488281 10.921874-12.226562 47.984376-40.433594 81.230469-73.625 86.765626-3.53125.574218-6.746094.832031-9.898437.832031zm0 0"/><path d="m305.417969 395.238281c-4.957031 0-8.980469-4.015625-8.980469-8.984375v-8.980468c0-4.96875 4.023438-8.984376 8.980469-8.984376 4.960937 0 8.984375 4.015626 8.984375 8.984376v8.980468c0 4.96875-4.023438 8.984375-8.984375 8.984375zm0 0"/></g></svg>