<svg height="511pt" viewBox="0 -4 511.9897 511" width="511pt" xmlns="http://www.w3.org/2000/svg"><path d="m315.664062 97.773438c-8.582031-44.417969-44.933593-79.578126-89.582031-86.914063-28.355469-4.660156-55.058593 1.542969-76.738281 15.066406-19.773438 12.324219-40.570312 22.960938-61.492188 33.226563-48.3125 23.722656-81.089843 74.171875-78.9375 132.117187 2.683594 71.847657 60.988282 131.449219 132.757813 135.597657 70.566406 4.078124 130.578125-43.703126 145.753906-108.753907 4.183594-17.929687 11.890625-34.765625 19.789063-51.394531 9.640625-20.320312 13.261718-44.042969 8.449218-68.945312zm0 0" fill="#6b4842"/><path d="m410.472656 177.046875c-29.800781 0-56.265625 24.160156-73.199218 61.644531-10.070313 22.304688-25.800782 42.175782-47.28125 53.917969-30.472657 16.664063-51.65625 53.476563-51.65625 96.300781 0 58.5 39.519531 105.929688 88.273437 105.929688 8.210937 0 16.148437-1.367188 23.675781-3.910156 13.207032-4.457032 27.375-4.742188 40.40625.203124 6.371094 2.417969 12.984375 3.707032 19.78125 3.707032 51.191406 0 92.691406-71.140625 92.691406-158.898438 0-87.753906-41.5-158.894531-92.691406-158.894531zm0 0" fill="#be7c6d"/><g fill="#4d007e"><path d="m149.996094 335.941406c-2.929688 0-5.878906-.085937-8.828125-.253906-76.25-4.40625-138.210938-67.691406-141.0625-144.085938-2.207031-59.167968 30.710937-114.261718 83.859375-140.367187 19.8125-9.726563 40.875-20.417969 60.71875-32.792969 24.460937-15.261718 53.882812-21.054687 82.835937-16.285156 48.597657 7.976562 87.5 45.742188 96.8125 93.960938 4.953125 25.625 1.792969 51.355468-9.144531 74.40625-7.867188 16.558593-15.246094 32.8125-19.164062 49.621093-15.933594 68.289063-76.554688 115.796875-146.027344 115.796875zm57.28125-317.808594c-18.90625 0-37.046875 5.171876-53.265625 15.28125-20.503907 12.78125-42.054688 23.726563-62.277344 33.648438-46.902344 23.03125-75.953125 71.65625-74 123.871094 2.515625 67.398437 57.175781 123.230468 124.441406 127.117187 64.546875 3.636719 121.996094-39.152343 136.652344-101.949219 4.316406-18.511718 12.117187-35.71875 20.40625-53.171874 9.304687-19.621094 11.988281-41.578126 7.753906-63.488282-7.921875-40.992187-41.015625-73.089844-82.34375-79.886718-5.828125-.945313-11.636719-1.421876-17.367187-1.421876zm0 0"/><path d="m97.09375 128.496094c-4.875 0-8.828125-3.945313-8.828125-8.828125 0-65.714844 53.460937-119.171875 119.171875-119.171875 4.875 0 8.828125 3.945312 8.828125 8.828125 0 4.878906-3.953125 8.824219-8.828125 8.824219-55.976562 0-101.515625 45.542968-101.515625 101.519531 0 4.882812-3.957031 8.828125-8.828125 8.828125zm0 0"/><path d="m290.222656 216.707031c-.148437 0-.300781 0-.441406-.007812-4.871094-.238281-8.625-4.386719-8.375-9.257813l1.09375-22.007812c-.027344-15.449219-2.808594-30.984375-8.289062-45.726563-1.703126-4.574219.625-9.648437 5.191406-11.351562 4.535156-1.714844 9.648437.625 11.351562 5.199219 6.222656 16.71875 9.375 34.320312 9.375 52.320312l-1.105468 22.449219c-.230469 4.710937-4.128907 8.382812-8.800782 8.382812zm0 0"/><path d="m132.402344 274.148438c-19.472656 0-35.308594-15.835938-35.308594-35.308594 0-4.882813 3.953125-8.828125 8.828125-8.828125 4.871094 0 8.828125 3.945312 8.828125 8.828125 0 9.738281 7.917969 17.65625 17.652344 17.65625 4.875 0 8.828125 3.945312 8.828125 8.828125 0 4.878906-3.953125 8.824219-8.828125 8.824219zm0 0"/><path d="m326.609375 441.875c-19.472656 0-35.308594-15.835938-35.308594-35.3125 0-4.878906 3.953125-8.828125 8.828125-8.828125 4.871094 0 8.828125 3.949219 8.828125 8.828125 0 9.738281 7.917969 17.65625 17.652344 17.65625 4.875 0 8.828125 3.945312 8.828125 8.828125s-3.953125 8.828125-8.828125 8.828125zm0 0"/><path d="m132.402344 194.703125c-19.472656 0-35.308594-15.839844-35.308594-35.3125 0-4.882813 3.953125-8.828125 8.828125-8.828125 4.871094 0 8.828125 3.945312 8.828125 8.828125 0 9.738281 7.917969 17.65625 17.652344 17.65625 4.875 0 8.828125 3.945313 8.828125 8.828125 0 4.878906-3.953125 8.828125-8.828125 8.828125zm0 0"/><path d="m459.023438 397.734375c-19.472657 0-35.308594-15.835937-35.308594-35.308594 0-4.882812 3.953125-8.828125 8.828125-8.828125 4.871093 0 8.824219 3.945313 8.824219 8.828125 0 9.738281 7.921874 17.65625 17.65625 17.65625 4.875 0 8.828124 3.945313 8.828124 8.828125 0 4.878906-3.953124 8.824219-8.828124 8.824219zm0 0"/><path d="m370.75 380.082031c-19.476562 0-35.3125-15.835937-35.3125-35.3125 0-4.878906 3.957031-8.828125 8.828125-8.828125s8.828125 3.949219 8.828125 8.828125c0 9.738281 7.917969 17.65625 17.65625 17.65625 4.871094 0 8.824219 3.945313 8.824219 8.828125 0 4.882813-3.953125 8.828125-8.824219 8.828125zm0 0"/><path d="m220.679688 194.703125c-19.472657 0-35.3125-15.839844-35.3125-35.3125 0-4.882813 3.957031-8.828125 8.828124-8.828125 4.875 0 8.828126 3.945312 8.828126 8.828125 0 9.738281 7.917968 17.65625 17.65625 17.65625 4.871093 0 8.828124 3.945313 8.828124 8.828125 0 4.878906-3.957031 8.828125-8.828124 8.828125zm0 0"/><path d="m211.851562 106.425781c-19.472656 0-35.308593-15.835937-35.308593-35.308593 0-4.882813 3.953125-8.828126 8.824219-8.828126 4.875 0 8.828124 3.945313 8.828124 8.828126 0 9.734374 7.917969 17.652343 17.65625 17.652343 4.871094 0 8.828126 3.945313 8.828126 8.828125 0 4.882813-3.957032 8.828125-8.828126 8.828125zm0 0"/><path d="m410.472656 503.667969c-7.707031 0-15.414062-1.441407-22.90625-4.273438-10.683594-4.070312-22.609375-4.105469-34.457031-.105469-8.597656 2.902344-17.511719 4.378907-26.5 4.378907-53.539063 0-97.101563-51.484375-97.101563-114.757813 0-44.519531 22.078126-85.355468 56.25-104.035156 23.019532-12.597656 36.351563-34.039062 43.464844-49.8125 19.183594-42.480469 48.800782-66.84375 81.25-66.84375 56.929688 0 101.515625 73.675781 101.515625 167.722656 0 94.050782-44.585937 167.726563-101.515625 167.726563zm-39.839844-25.019531c7.964844 0 15.765626 1.414062 23.191407 4.230468 5.480469 2.082032 11.085937 3.132813 16.648437 3.132813 45.453125 0 83.863282-68.722657 83.863282-150.070313 0-81.34375-38.410157-150.066406-83.863282-150.066406-25.203125 0-48.957031 20.578125-65.148437 56.453125-11.800781 26.144531-29.476563 46.210937-51.09375 58.03125-28.59375 15.632813-47.066407 50.394531-47.066407 88.550781 0 53.539063 35.644532 97.101563 79.445313 97.101563 7.0625 0 14.070313-1.164063 20.851563-3.453125 7.734374-2.609375 15.527343-3.910156 23.171874-3.910156zm0 0"/><path d="m317.78125 344.769531c-4.871094 0-8.824219-3.945312-8.824219-8.828125 0-94.046875 44.585938-167.722656 101.515625-167.722656 4.871094 0 8.828125 3.945312 8.828125 8.828125s-3.957031 8.828125-8.828125 8.828125c-45.453125 0-83.863281 68.722656-83.863281 150.066406 0 4.882813-3.953125 8.828125-8.828125 8.828125zm0 0"/><path d="m326.609375 503.667969c-4.871094 0-8.828125-3.945313-8.828125-8.828125 0-4.882813 3.957031-8.828125 8.828125-8.828125 28.003906 0 54.253906-18.378907 68.519531-47.976563 2.121094-4.398437 7.40625-6.269531 11.785156-4.113281 4.398438 2.109375 6.242188 7.386719 4.125 11.785156-17.242187 35.75-49.585937 57.960938-84.429687 57.960938zm0 0"/></g></svg>