<svg height="512pt" viewBox="0 0 512 512.00194" width="512pt" xmlns="http://www.w3.org/2000/svg"><path d="m145.476562 458.105469c-2.398437-2.96875-3.667968-7.046875-3.054687-12.261719 4.984375-42.308594 15.558594-79.734375 35.917969-114.480469-10.660156 5.570313-21.367188 11.058594-32.582032 15.546875-24.769531 9.914063-54.601562 9.011719-76.839843 24.3125-7.925781 5.453125-15.605469 3.726563-20.90625-1.1875-4.667969-1.613281-7.960938-4.863281-9.890625-8.882812l-29.558594 12.226562c24.335938 58.753906 71.3125 105.71875 130.054688 130.054688l14.277343-34.5c-3.859375-2.550782-6.324219-6.46875-7.417969-10.828125zm0 0" fill="#be6e41"/><path d="m151.679688 471.84375 78.730468-190.261719-193.851562 80.210938c25.164062 48.175781 65.699218 87.027343 115.121094 110.050781zm0 0" fill="#f7e6a1"/><path d="m121.976562 383.449219c5.683594-3.003907 9.675782-7.621094 15.777344-12.484375 5.796875-4.617188 12.902344-5.316406 18.699219-.171875 9.214844-16.269531 7.074219-37.246094-6.800781-51.113281-1.1875-1.175782-2.527344-2.089844-3.808594-3.105469l-68.5625 28.375c-1.441406 12.492187 2.441406 25.488281 12.023438 35.070312 7.371093 7.371094 16.792968 11.289063 26.425781 12.132813.820312-3.632813 2.988281-6.980469 6.246093-8.703125zm0 0" fill="#cb465f"/><path d="m225.03125 10.394531c-110.496094 13.414063-199.453125 101.511719-214.214844 211.835938-5.496094 41.027343-.769531 80.351562 11.792969 115.984375l33.421875-13.976563c-1.003906-7.355469 1.734375-15.25 8.152344-19.355469 1.253906-1.320312 2.71875-2.558593 4.546875-3.625 39.226562-22.679687 81.628906-33.074218 123.988281-47.929687 27.058594-9.492187 58.785156-30.882813 85.792969-10.734375 9.921875 7.40625 9.863281 19.554688 4.855469 27.867188 1.449218 3.480468 1.636718 7.671874-.300782 12.476562-9.640625 23.933594-21.726562 46.164062-34.414062 68.589844-12.433594 21.988281-32.324219 48.367187-36.582032 74.109375 10.726563 10.308593 6.519532 33.527343-12.722656 33.527343-4.121094 0-7.492187-1.132812-10.238281-2.910156l-13.851563 33.621094c35.53125 12.261719 74.675782 16.792969 115.507813 11.144531 110.121094-15.222656 197.78125-104.328125 210.90625-214.710937 19.097656-160.664063-115.898437-295.421875-276.640625-275.914063zm0 0" fill="#be6e41"/><path d="m410.082031 108.542969c-1.867187 1.144531-4.128906 1.878906-6.867187 1.878906-3.199219 0-5.804688-.929687-7.816406-2.433594-10.242188-1.5-13.191407-13.214843-8.738282-20.582031-39.882812-30.957031-91.007812-48.125-146.242187-44.199219-37.539063 2.667969-72.566407 15.460938-102.492188 35.488281 1.355469 5.324219-.1875 11.484376-4.710937 14.789063-2.140625 2.652344-5.375 4.496094-9.828125 4.496094-3.097657 0-5.625-.886719-7.605469-2.304688-37.691406 32.980469-63.980469 78.828125-71.082031 130.769531-4.707031 34.484376-.792969 68.507813 9.355469 98.613282l194.136718-81.382813c12.664063-5.238281 25.351563 7.441407 20.113282 20.113281l-80.023438 194.472657c30.09375 10.136719 62.753906 13.726562 97.226562 9.027343 88.832032-12.125 160.023438-80.144531 178.753907-166.003906-5.523438-2.476562-7.886719-8.585937-7.152344-14.226562.273437-6.042969 3.976563-11.886719 11.332031-12.585938.085938-.957031.265625-1.878906.332032-2.84375 4.53125-63.355468-18.703126-121.304687-58.691407-163.085937zm0 0" fill="#f7e6a1"/><path d="m298.683594 136.515625c0 23.5625-19.101563 42.667969-42.667969 42.667969-23.5625 0-42.664063-19.105469-42.664063-42.667969s19.101563-42.664063 42.664063-42.664063c23.566406 0 42.667969 19.101563 42.667969 42.664063zm0 0" fill="#cb465f"/><path d="m291.183594 120.480469c1.015625-1.015625 1.859375-2.132813 2.667968-3.265625-.179687-.351563-.355468-.691406-.542968-1.042969-.609375-1.109375-1.109375-2.285156-1.8125-3.328125-1.535156-2.292969-3.285156-4.480469-5.3125-6.5-2.023438-2.023438-4.21875-3.78125-6.503906-5.316406-1.050782-.699219-2.21875-1.203125-3.328126-1.808594-1.332031-.726562-2.628906-1.539062-4.011718-2.109375-1.390625-.578125-2.882813-.921875-4.351563-1.347656-1.210937-.359375-2.390625-.828125-3.617187-1.074219-2.707032-.539062-5.496094-.847656-8.355469-.847656-2.464844 0-4.84375.324218-7.199219.726562-2.835937 8.839844-.855468 18.894532 6.160156 25.90625 10 10.011719 26.203126 10.011719 36.207032.007813zm0 0" fill="#dd3155"/><path d="m385.082031 273.226562c8.59375-4.285156 17.339844-5.921874 24.890625-11.023437 3.097656-2.09375 6.929688-2.304687 10.394532-1.238281 3.925781-6.453125 6.3125-13.953125 6.3125-22.058594 0-21.949219-16.628907-39.808594-37.9375-42.1875-.964844 3.378906-3.234376 6.46875-6.152344 8.582031-3.132813 2.269531-6.390625 4.335938-9.625 6.453125-1.585938 1.039063-3.175782 2.089844-4.710938 3.214844-1.304687.941406-1.535156 1.121094-.691406.539062-.742188.621094-1.46875 1.261719-2.175781 1.929688-5.332031 4.863281-12.765625 4.957031-18.261719.410156-3.566406 6.234375-5.769531 13.359375-5.769531 21.058594 0 21.863281 16.511719 39.679688 37.710937 42.160156.859375-3.300781 2.875-6.269531 6.015625-7.839844zm0 0" fill="#cb465f"/><path d="m419.179688 254.941406c1.015624 1.011719 1.859374 2.132813 2.671874 3.265625-.179687.351563-.359374.691407-.546874 1.042969-.605469 1.109375-1.109376 2.285156-1.808594 3.328125-1.535156 2.292969-3.285156 4.480469-5.316406 6.5-2.023438 2.023437-4.214844 3.78125-6.503907 5.316406-1.046875.699219-2.21875 1.203125-3.328125 1.808594-1.328125.726563-2.625 1.539063-4.007812 2.109375-1.390625.578125-2.886719.921875-4.351563 1.347656-1.214843.359375-2.390625.828125-3.621093 1.074219-2.703126.539063-5.492188.847656-8.351563.847656-2.46875 0-4.847656-.324219-7.203125-.726562-2.832031-8.839844-.851562-18.894531 6.160156-25.90625 10-10.003907 26.207032-10.003907 36.207032-.007813zm0 0" fill="#dd3155"/><path d="m348.839844 222.878906c-1.015625-1.015625-1.859375-2.132812-2.660156-3.265625.179687-.359375.367187-.710937.554687-1.058593.605469-1.101563 1.097656-2.269532 1.789063-3.3125 1.539062-2.292969 3.285156-4.480469 5.316406-6.5 2.023437-2.023438 4.21875-3.78125 6.503906-5.316407 1.039062-.699219 2.210938-1.195312 3.3125-1.792969 1.339844-.734374 2.644531-1.542968 4.035156-2.125 1.382813-.570312 2.867188-.914062 4.316406-1.339843 1.222657-.359375 2.40625-.835938 3.652344-1.082031 2.707032-.539063 5.496094-.847657 8.355469-.847657 2.464844 0 4.847656.324219 7.199219.726563 2.835937 8.839844.855468 18.894531-6.160156 25.90625-10.007813 10.011718-26.214844 10.011718-36.214844.007812zm0 0" fill="#dd3155"/><path d="m123.605469 162.523438c-.621094 1.339843-1.421875 2.613281-2.480469 3.714843-4.089844 4.222657-8.996094 6.6875-14.3125 8.941407-1.089844.460937-1.363281.5625-1.363281.546874-.195313.09375-.476563.230469-.957031.460938-.914063.433594-1.832032.84375-2.722657 1.332031-.230469.125-1.476562 1.015625-1.78125 1.160157-.699219.671874-1.359375 1.355468-1.972656 2.132812-3.515625 4.445312-10.195313 4.753906-15.1875 2.472656-3.722656 6.332032-6 13.613282-6 21.488282 0 21.546874 16.027344 39.175781 36.769531 42.066406.785156-3.703125 2.945313-7.113282 6.253906-8.820313-.015624.007813 1.324219-.804687 1.835938-1.066406.476562-.417969 1.363281-1.152344 1.5-1.273437 1.785156-1.550782 3.628906-3.113282 5.582031-4.445313 1.671875-1.144531 3.492188-2.03125 5.28125-2.96875 1.015625-.539063 2.015625-1.101563 3.023438-1.65625.390625-.214844 1.730469-1.210937.691406-.359375 5.664063-4.667969 12.839844-5.230469 18.550781-.28125 3.617188-6.261719 5.84375-13.4375 5.84375-21.195312-.007812-22.144532-16.957031-40.140626-38.554687-42.25zm0 0" fill="#cb465f"/><path d="m154.652344 220.808594c1.015625 1.011718 1.859375 2.132812 2.667968 3.265625-.175781.351562-.355468.691406-.542968 1.042969-.605469 1.109374-1.109375 2.285156-1.8125 3.328124-1.535156 2.292969-3.285156 4.480469-5.3125 6.5-2.023438 2.023438-4.21875 3.78125-6.503906 5.316407-1.050782.699219-2.21875 1.203125-3.328126 1.808593-1.332031.726563-2.628906 1.539063-4.011718 2.109376-1.390625.578124-2.882813.921874-4.351563 1.347656-1.210937.359375-2.386719.828125-3.617187 1.074218-2.707032.539063-5.496094.847657-8.355469.847657-2.464844 0-4.84375-.324219-7.199219-.726563-2.835937-8.839844-.855468-18.894531 6.160156-25.90625 10-10.003906 26.203126-10.003906 36.207032-.007812zm0 0" fill="#dd3155"/><path d="m84.3125 188.746094c-1.015625-1.015625-1.851562-2.132813-2.664062-3.265625.179687-.359375.367187-.710938.554687-1.058594.605469-1.101563 1.101563-2.269531 1.792969-3.3125 1.535156-2.292969 3.285156-4.480469 5.316406-6.5 2.023438-2.023437 4.214844-3.78125 6.503906-5.316406 1.039063-.699219 2.207032-1.195313 3.308594-1.792969 1.339844-.734375 2.644531-1.542969 4.035156-2.125 1.382813-.570312 2.867188-.914062 4.320313-1.339844 1.21875-.359375 2.40625-.835937 3.652343-1.082031 2.703126-.539063 5.496094-.847656 8.351563-.847656 2.46875 0 4.847656.324219 7.203125.726562 2.832031 8.839844.855469 18.894531-6.160156 25.90625-10.011719 10.011719-26.214844 10.011719-36.214844.007813zm0 0" fill="#dd3155"/><path d="m154.652344 365.871094c1.015625 1.015625 1.859375 2.132812 2.667968 3.269531-.175781.347656-.355468.691406-.542968 1.039063-.605469 1.109374-1.109375 2.289062-1.8125 3.328124-1.535156 2.296876-3.285156 4.480469-5.3125 6.503907-2.023438 2.019531-4.21875 3.777343-6.503906 5.316406-1.050782.699219-2.21875 1.203125-3.328126 1.808594-1.332031.722656-2.628906 1.535156-4.011718 2.105469-1.390625.582031-2.882813.921874-4.351563 1.347656-1.210937.359375-2.386719.828125-3.617187 1.078125-2.707032.535156-5.496094.84375-8.355469.84375-2.464844 0-4.84375-.324219-7.199219-.726563-2.835937-8.839844-.855468-18.890625 6.160156-25.90625 10-10 26.203126-10 36.207032-.007812zm0 0" fill="#dd3155"/><path d="m307.214844 332.78125c-23.558594 0-42.664063 19.105469-42.664063 42.664062 0 7.507813 2.105469 14.472657 5.519531 20.597657 5.8125-1.695313 11.519532 1.203125 15.273438 6.070312 1.214844 1.566407 3.515625 3.488281 6.332031 4.800781.238281.078126.410157.136719.929688.316407.847656.257812 1.707031.453125 2.570312.617187.015625-.128906 3.667969-.214844 4.214844-.273437 6.023437-.640625 11.238281 4.46875 12.824219 10.023437 21.171875-2.507812 37.660156-20.316406 37.660156-42.160156.007812-23.5625-19.097656-42.65625-42.660156-42.65625zm0 0" fill="#cb465f"/><path d="m272.042969 391.46875c-1.015625 1.015625-1.859375 2.136719-2.671875 3.269531.179687.351563.359375.691407.546875 1.042969.605469 1.109375 1.109375 2.285156 1.808593 3.328125 1.535157 2.292969 3.285157 4.476563 5.316407 6.5 2.023437 2.023437 4.214843 3.78125 6.5 5.316406 1.050781.699219 2.21875 1.203125 3.328125 1.808594 1.332031.726563 2.628906 1.535156 4.011718 2.109375 1.390626.578125 2.886719.921875 4.351563 1.347656 1.210937.359375 2.390625.828125 3.617187 1.074219 2.707032.539063 5.496094.84375 8.355469.84375 2.464844 0 4.847657-.324219 7.203125-.722656 2.832032-8.839844.851563-18.894531-6.160156-25.90625-10.003906-10.003907-26.207031-10.003907-36.207031-.011719zm0 0" fill="#dd3155"/><path d="m303.113281 305.839844 13.957031-8.667969c4.148438-2.578125 5.429688-8.03125 2.851563-12.1875l-20.273437-32.648437c-1.144532-1.84375-3.558594-2.40625-5.402344-1.261719-6.171875 3.832031-14.269532 1.9375-18.097656-4.234375l-15.414063-24.8125c-2.574219-4.148438-8.027344-5.425782-12.183594-2.851563l-13.960937 8.671875c-4.148438 2.574219-5.425782 8.027344-2.851563 12.183594l5.164063 8.3125 11.289062-4.675781c12.671875-5.25 25.351563 7.441406 20.113282 20.113281l-3.386719 8.199219c4.1875.179687 8.214843 2.355469 10.597656 6.195312l15.410156 24.8125c2.578125 4.15625 8.03125 5.4375 12.1875 2.851563zm0 0" fill="#c5411e"/><path d="m410.304688 108.757812c-7.875-8.25-16.398438-15.871093-25.496094-22.777343l-20.566406 20.566406c-1.535157 1.527344-1.535157 4.019531 0 5.546875 5.128906 5.136719 5.128906 13.457031 0 18.585938l-20.648438 20.648437c-3.457031 3.457031-3.457031 9.0625 0 12.511719l11.621094 11.621094c3.457031 3.457031 9.0625 3.457031 12.511718 0l27.167969-27.167969c1.535157-1.527344 1.535157-4.019531 0-5.546875-5.128906-5.136719-5.128906-13.457032 0-18.585938zm0 0" fill="#dd352e"/><path d="m463.800781 303.84375c2.3125-10.011719 3.984375-20.234375 4.804688-30.675781l-4.941407-4.949219c-3.457031-3.457031-9.054687-3.457031-12.511718 0l-27.167969 27.175781c-1.535156 1.527344-1.535156 4.019531 0 5.546875 5.128906 5.136719 5.128906 13.457032 0 18.585938l-20.652344 20.648437c-3.453125 3.457031-3.453125 9.054688 0 12.511719l11.625 11.621094c3.453125 3.457031 9.0625 3.457031 12.507813 0l24.628906-24.625c1.058594-2.457032 1.988281-4.976563 2.960938-7.46875-.136719-.203125-.230469-.433594-.410157-.621094-5.128906-5.136719-5.128906-13.457031 0-18.585938zm0 0" fill="#23a24d"/><path d="m118.511719 106.011719c1.144531 1.839843 3.558593 2.40625 5.402343 1.261719 6.171876-3.832032 14.269532-1.9375 18.097657 4.230468l15.414062 24.816406c2.574219 4.148438 8.027344 5.425782 12.183594 2.847657l13.960937-8.667969c4.148438-2.578125 5.425782-8.03125 2.851563-12.183594l-20.277344-32.648437c-1.144531-1.84375-3.558593-2.40625-5.402343-1.265625-6.167969 3.832031-14.265626 1.9375-18.097657-4.230469l-2.066406-3.328125c-9.625 6.230469-18.695313 13.242188-27.195313 20.898438zm0 0" fill="#ebba16"/><g fill="#000"><path d="m358.414062 341.3125c-2.183593 0-4.367187-.835938-6.03125-2.5-3.335937-3.335938-3.335937-8.730469 0-12.066406l17.066407-17.066406c3.328125-3.335938 8.738281-3.335938 12.066406 0 3.335937 3.335937 3.335937 8.730468 0 12.066406l-17.066406 17.066406c-1.664063 1.664062-3.859375 2.5-6.035157 2.5zm0 0"/><path d="m290.148438 221.847656c-2.183594 0-4.367188-.835937-6.03125-2.5-3.335938-3.335937-3.335938-8.730468 0-12.066406l17.066406-17.066406c3.328125-3.335938 8.738281-3.335938 12.066406 0 3.335938 3.335937 3.335938 8.730468 0 12.066406l-17.066406 17.066406c-1.664063 1.664063-3.859375 2.5-6.035156 2.5zm0 0"/><path d="m187.75 221.847656c-2.183594 0-4.367188-.835937-6.03125-2.5-3.335938-3.335937-3.335938-8.730468 0-12.066406l17.066406-17.066406c3.328125-3.335938 8.738282-3.335938 12.066406 0 3.335938 3.335937 3.335938 8.730468 0 12.066406l-17.066406 17.066406c-1.664062 1.664063-3.859375 2.5-6.035156 2.5zm0 0"/><path d="m315.75 110.917969c-2.183594 0-4.371094-.835938-6.035156-2.5-3.335938-3.339844-3.335938-8.730469 0-12.066407l17.066406-17.066406c3.328125-3.335937 8.738281-3.335937 12.066406 0 3.335938 3.335938 3.335938 8.726563 0 12.066406l-17.066406 17.066407c-1.664062 1.664062-3.855469 2.5-6.03125 2.5zm0 0"/><path d="m256.015625 187.714844c-28.226563 0-51.199219-22.960938-51.199219-51.199219 0-28.234375 22.972656-51.199219 51.199219-51.199219 28.230469 0 51.199219 22.964844 51.199219 51.199219 0 28.238281-22.96875 51.199219-51.199219 51.199219zm0-85.332032c-18.824219 0-34.132813 15.308594-34.132813 34.132813s15.308594 34.132813 34.132813 34.132813 34.132813-15.308594 34.132813-34.132813-15.316407-34.132813-34.132813-34.132813zm0 0"/><path d="m255.863281 477.859375c-24.019531 0-47.691406-3.890625-70.6875-11.636719-2.238281-.753906-4.0625-2.398437-5.042969-4.550781-.984374-2.148437-1.015624-4.613281-.121093-6.800781l80.417969-194.332032c1.628906-3.925781-.726563-6.71875-1.484376-7.476562-.761718-.757812-3.542968-3.097656-7.476562-1.492188l-194.34375 80.414063c-2.183594.898437-4.640625.863281-6.792969-.117187-2.148437-.972657-3.796875-2.800782-4.554687-5.042969-11.042969-32.800781-14.25-66.960938-9.523438-101.539063 14.078125-103.054687 99.691406-183.214844 203.558594-190.585937 64.511719-4.710938 127.589844 18.890625 173.105469 64.425781 45.515625 45.53125 68.980469 108.625 64.371093 173.121094-7.40625 103.847656-87.582031 189.425781-190.628906 203.507812-10.308594 1.40625-20.582031 2.105469-30.796875 2.105469zm-56.515625-25.085937c27.578125 7.960937 56.132813 10.027343 85.007813 6.058593 95.09375-12.980469 169.078125-91.960937 175.910156-187.808593 4.25-59.550782-17.40625-117.816407-59.421875-159.835938-42.019531-42.023438-100.257812-63.613281-159.828125-59.472656-95.851563 6.816406-174.855469 80.78125-187.859375 175.882812-3.949219 28.894532-1.910156 57.445313 6.058594 85.050782l185.71875-76.855469c9.113281-3.78125 19.097656-1.785157 26.066406 5.1875 6.972656 6.960937 8.960938 16.953125 5.1875 26.066406zm41.070313-409.566407h.085937zm0 0"/><path d="m138.609375 511.976562c-1.109375 0-2.21875-.214843-3.269531-.648437-60.515625-25.070313-109.601563-74.152344-134.671875-134.679687-.867188-2.089844-.867188-4.445313 0-6.535157.871093-2.09375 2.527343-3.746093 4.625-4.617187l221.863281-91.808594c3.191406-1.339844 6.851562-.589844 9.292969 1.851562 2.441406 2.441407 3.175781 6.109376 1.851562 9.300782l-91.808593 221.863281c-.871094 2.089844-2.523438 3.746094-4.617188 4.617187-1.046875.433594-2.15625.65625-3.265625.65625zm-118.757813-134.03125c23.039063 50.183594 64.015626 91.167969 114.199219 114.199219l80.613281-194.8125zm0 0"/><path d="m255.820312 512c-28.355468 0-56.269531-4.691406-83.34375-14.042969-2.21875-.769531-4.027343-2.414062-4.992187-4.558593-.964844-2.140626-1.007813-4.582032-.109375-6.757813l93.0625-225.964844c1.621094-3.9375-.742188-6.71875-1.511719-7.476562-.765625-.75-3.558593-3.132813-7.484375-1.460938l-225.539062 94.351563c-2.167969.90625-4.609375.890625-6.757813-.074219-2.140625-.949219-3.804687-2.75-4.582031-4.96875-13.59375-38.558594-17.691406-78.914063-12.203125-119.949219 15.394531-115.078125 106.546875-205.207031 221.648437-219.175781 79.207032-9.574219 156.773438 16.921875 212.792969 72.8125 56.019531 55.886719 82.753907 133.367187 73.34375 212.582031-13.664062 114.921875-103.390625 206.28125-218.210937 222.160156-12.09375 1.679688-24.148438 2.515626-36.113282 2.523438zm-69.160156-27.371094c33.296875 10.128906 67.878906 12.789063 102.933594 7.960938 107.136719-14.832032 190.855469-100.0625 203.601562-207.289063 8.789063-73.972656-16.152343-146.320312-68.441406-198.480469-52.292968-52.164062-124.722656-76.980468-198.6875-67.953124-107.390625 13.03125-192.425781 97.125-206.792968 204.5-4.730469 35.292968-1.851563 70.039062 8.53125 103.421874l217.050781-90.808593c9.105469-3.800781 19.113281-1.851563 26.113281 5.109375 6.996094 6.953125 9.007812 16.945312 5.246094 26.078125zm38.371094-474.234375h.085938zm0 0"/><path d="m151.679688 480.378906c-1.234376 0-2.464844-.265625-3.597657-.804687-50.816406-23.667969-93.105469-64.101563-119.074219-113.839844-1.109374-2.125-1.269531-4.617187-.453124-6.867187.820312-2.253907 2.542968-4.054688 4.761718-4.96875l193.851563-80.203126c3.191406-1.339843 6.851562-.589843 9.289062 1.851563 2.441407 2.441406 3.175781 6.109375 1.851563 9.300781l-78.742188 190.257813c-.886718 2.148437-2.621094 3.839843-4.789062 4.683593-.996094.394532-2.046875.589844-3.097656.589844zm-103.054688-114.347656c23.007812 40.089844 57.558594 73.070312 98.652344 94.148438l67.386718-162.855469zm0 0"/><path d="m273.082031 136.515625c-9.113281 0-17.6875-3.550781-24.140625-10-9.027344-9.027344-12.191406-22.265625-8.257812-34.542969.972656-3.039062 3.558594-5.273437 6.699218-5.820312 4.992188-.84375 12.082032-1.152344 18.660157.171875 1.136719.222656 2.277343.570312 3.414062.945312l1.917969.574219c1.453125.398438 2.894531.828125 4.269531 1.398438 1.269531.519531 2.558594 1.230468 3.839844 1.953124l1.882813 1.015626c1.050781.53125 2.082031 1.074218 3.054687 1.722656 2.851563 1.90625 5.472656 4.054687 7.800781 6.375 2.3125 2.304687 4.453125 4.925781 6.375 7.792968.65625.972657 1.195313 2.003907 1.722656 3.046876l1.136719 2.164062c1.449219 2.84375 1.203125 6.257812-.65625 8.859375-1.078125 1.511719-2.21875 2.976563-3.578125 4.335937-6.449218 6.457032-15.027344 10.007813-24.140625 10.007813zm-16.980469-34.132813c-.035156 4.480469 1.679688 8.824219 4.914063 12.066407 5.871094 5.871093 15.789063 6.511719 22.300781 1.605469-.992187-1.324219-2.050781-2.554688-3.152344-3.660157-1.550781-1.554687-3.300781-2.988281-5.21875-4.269531-.386718-.253906-.820312-.460938-1.246093-.664062l-2.628907-1.417969c-.648437-.367188-1.28125-.75-1.953124-1.023438-.769532-.324219-1.511719-.503906-2.246094-.707031l-2.765625-.835938c-.453125-.15625-.894531-.316406-1.363281-.410156-2.253907-.453125-4.472657-.675781-6.640626-.683594zm0 0"/><path d="m384.015625 290.113281c-28.230469 0-51.199219-22.960937-51.199219-51.199219 0-28.234374 22.96875-51.199218 51.199219-51.199218 28.226563 0 51.199219 22.964844 51.199219 51.199218 0 28.238282-22.972656 51.199219-51.199219 51.199219zm0-85.332031c-18.824219 0-34.132813 15.308594-34.132813 34.132812 0 18.824219 15.308594 34.132813 34.132813 34.132813s34.132813-15.308594 34.132813-34.132813c0-18.824218-15.316407-34.132812-34.132813-34.132812zm0 0"/><path d="m384.015625 290.113281c-3.226563 0-6.171875-.425781-8.628906-.84375-3.140625-.539062-5.726563-2.773437-6.699219-5.820312-3.933594-12.269531-.765625-25.515625 8.261719-34.542969 12.894531-12.902344 35.378906-12.902344 48.273437 0 1.355469 1.355469 2.492188 2.824219 3.574219 4.335938 1.859375 2.601562 2.109375 6.015624.65625 8.855468l-1.132813 2.167969c-.53125 1.042969-1.066406 2.074219-1.714843 3.039063-1.929688 2.875-4.070313 5.503906-6.394531 7.808593-2.320313 2.3125-4.9375 4.460938-7.78125 6.363281-.972657.648438-2.011719 1.203126-3.054688 1.726563l-1.886719 1.015625c-1.277343.722656-2.566406 1.433594-3.914062 1.976562-1.296875.539063-2.742188.964844-4.191407 1.367188l-1.917968.570312c-1.136719.375-2.28125.726563-3.449219.957032-3.3125.683594-6.691406 1.023437-10 1.023437zm17.066406-34.132812c-4.558593 0-8.839843 1.773437-12.066406 5-3.234375 3.234375-4.949219 7.585937-4.914063 12.066406 2.164063-.007813 4.382813-.230469 6.59375-.675781.496094-.101563.949219-.261719 1.398438-.417969l2.765625-.835937c.734375-.203126 1.484375-.382813 2.175781-.671876.753906-.308593 1.382813-.691406 2.03125-1.058593l2.628906-1.417969c.425782-.203125.863282-.410156 1.253907-.664062 1.910156-1.28125 3.667969-2.714844 5.214843-4.257813 1.109376-1.109375 2.167969-2.332031 3.15625-3.671875-2.953124-2.207031-6.5-3.394531-10.238281-3.394531zm0 0"/><path d="m366.949219 238.914062c-9.113281 0-17.691407-3.550781-24.140625-10 0 0 0 0 0-.007812-1.347656-1.351562-2.492188-2.816406-3.566406-4.328125-1.871094-2.609375-2.109376-6.042969-.632813-8.890625l1.109375-2.109375c.527344-1.058594 1.074219-2.097656 1.722656-3.070313 1.921875-2.867187 4.070313-5.496093 6.382813-7.800781 2.320312-2.3125 4.941406-4.460937 7.785156-6.363281.953125-.640625 1.988281-1.195312 3.035156-1.714844l1.929688-1.035156c1.269531-.714844 2.542969-1.414062 3.875-1.953125 1.320312-.546875 2.730469-.964844 4.144531-1.355469l2.015625-.597656c1.117187-.367188 2.234375-.71875 3.378906-.949219 6.605469-1.3125 13.679688-1.015625 18.671875-.167969 3.140625.535157 5.722656 2.769532 6.695313 5.816407 3.9375 12.273437.769531 25.515625-8.257813 34.542969-6.460937 6.433593-15.035156 9.984374-24.148437 9.984374zm-10.230469-20.472656c6.519531 4.898438 16.433594 4.277344 22.296875-1.601562 3.234375-3.234375 4.949219-7.585938 4.914063-12.066406-2.167969.007812-4.386719.230468-6.597657.671874-.46875.09375-.929687.265626-1.398437.429688l-2.796875.84375c-.734375.195312-1.46875.382812-2.160157.664062-.707031.300782-1.355468.691407-2.015624 1.058594l-2.644532 1.417969c-.410156.203125-.828125.390625-1.203125.648437-1.9375 1.289063-3.6875 2.722657-5.230469 4.265626-1.117187 1.109374-2.175781 2.339843-3.164062 3.667968zm0 0"/><path d="m119.484375 255.980469c-28.226563 0-51.199219-22.960938-51.199219-51.199219 0-28.234375 22.972656-51.199219 51.199219-51.199219 28.230469 0 51.199219 22.964844 51.199219 51.199219 0 28.238281-22.96875 51.199219-51.199219 51.199219zm0-85.332031c-18.824219 0-34.132813 15.308593-34.132813 34.132812s15.308594 34.132812 34.132813 34.132812 34.132813-15.308593 34.132813-34.132812-15.316407-34.132812-34.132813-34.132812zm0 0"/><path d="m119.484375 255.980469c-3.222656 0-6.167969-.425781-8.625-.84375-3.140625-.539063-5.726563-2.773438-6.699219-5.820313-3.933594-12.269531-.769531-25.515625 8.261719-34.542968 12.890625-12.902344 35.378906-12.902344 48.269531 0 1.359375 1.355468 2.492188 2.824218 3.578125 4.335937 1.859375 2.601563 2.105469 6.015625.65625 8.855469l-1.136719 2.167968c-.527343 1.042969-1.066406 2.074219-1.714843 3.039063-1.929688 2.875-4.070313 5.503906-6.390625 7.808594-2.320313 2.3125-4.941406 4.460937-7.78125 6.363281-.972656.648438-2.015625 1.203125-3.054688 1.726562l-1.886718 1.015626c-1.28125.722656-2.570313 1.433593-3.917969 1.976562-1.296875.539062-2.738281.964844-4.1875 1.367188l-1.921875.570312c-1.132813.375-2.277344.726562-3.445313.957031-3.3125.683594-6.691406 1.023438-10.003906 1.023438zm17.066406-34.132813c-4.554687 0-8.839843 1.773438-12.066406 5-3.230469 3.234375-4.949219 7.585938-4.914063 12.066406 2.167969-.007812 4.386719-.230468 6.597657-.675781.496093-.101562.945312-.261719 1.398437-.417969l2.765625-.835937c.734375-.203125 1.484375-.382813 2.175781-.671875.75-.308594 1.382813-.691406 2.03125-1.058594l2.628907-1.417968c.425781-.203126.859375-.410157 1.253906-.664063 1.910156-1.28125 3.667969-2.714844 5.210937-4.257813 1.109376-1.109374 2.167969-2.332031 3.160157-3.671874-2.953125-2.207032-6.503907-3.394532-10.242188-3.394532zm0 0"/><path d="m102.417969 204.78125c-9.113281 0-17.6875-3.550781-24.140625-10 0 0 0 0 0-.007812-1.347656-1.351563-2.488282-2.816407-3.566406-4.328126-1.867188-2.609374-2.105469-6.042968-.628907-8.890624l1.109375-2.109376c.527344-1.058593 1.074219-2.097656 1.722656-3.070312 1.917969-2.867188 4.070313-5.496094 6.382813-7.800781 2.320313-2.3125 4.941406-4.460938 7.78125-6.363281.957031-.640626 1.988281-1.195313 3.039063-1.714844l1.929687-1.035156c1.269531-.714844 2.542969-1.414063 3.871094-1.953126 1.324219-.546874 2.730469-.964843 4.148437-1.355468l2.015625-.597656c1.117188-.367188 2.234375-.71875 3.378907-.949219 6.601562-1.3125 13.675781-1.015625 18.667968-.167969 3.140625.535156 5.726563 2.769531 6.699219 5.816406 3.933594 12.273438.769531 25.515625-8.261719 34.542969-6.457031 6.433594-15.035156 9.984375-24.148437 9.984375zm-10.230469-20.472656c6.519531 4.898437 16.433594 4.285156 22.296875-1.601563 3.234375-3.234375 4.949219-7.585937 4.917969-12.066406-2.167969.007813-4.386719.230469-6.597656.671875-.46875.09375-.929688.265625-1.398438.429688l-2.800781.84375c-.734375.195312-1.46875.382812-2.160157.664062-.707031.300781-1.355468.691406-2.011718 1.058594l-2.644532 1.417968c-.410156.203126-.828124.390626-1.203124.648438-1.9375 1.289062-3.6875 2.722656-5.230469 4.265625-1.121094 1.109375-2.175781 2.339844-3.167969 3.667969zm0 0"/><path d="m119.484375 401.042969c-3.222656 0-6.167969-.425781-8.625-.84375-3.140625-.535157-5.726563-2.773438-6.699219-5.820313-3.933594-12.269531-.769531-25.511718 8.261719-34.539062 12.890625-12.902344 35.378906-12.902344 48.269531 0 1.359375 1.355468 2.492188 2.824218 3.578125 4.332031 1.859375 2.605469 2.105469 6.015625.65625 8.859375l-1.136719 2.167969c-.527343 1.039062-1.066406 2.070312-1.714843 3.035156-1.929688 2.875-4.070313 5.503906-6.390625 7.808594-2.320313 2.3125-4.941406 4.464843-7.78125 6.367187-.972656.648438-2.015625 1.203125-3.054688 1.722656l-1.886718 1.015626c-1.28125.726562-2.570313 1.433593-3.917969 1.980468-1.296875.535156-2.738281.964844-4.1875 1.363282l-1.921875.574218c-1.132813.375-2.277344.722656-3.445313.953125-3.3125.683594-6.691406 1.023438-10.003906 1.023438zm17.066406-34.132813c-4.554687 0-8.839843 1.777344-12.066406 5.003906-3.230469 3.234376-4.949219 7.585938-4.914063 12.0625 2.167969-.007812 4.386719-.226562 6.597657-.671874.496093-.101563.945312-.265626 1.398437-.417969l2.765625-.835938c.734375-.207031 1.484375-.386719 2.175781-.675781.75-.304688 1.382813-.691406 2.03125-1.058594l2.628907-1.414062c.425781-.207032.859375-.410156 1.253906-.667969 1.910156-1.277344 3.667969-2.710937 5.210937-4.257813 1.109376-1.109374 2.167969-2.328124 3.160157-3.667968-2.953125-2.210938-6.503907-3.398438-10.242188-3.398438zm0 0"/><path d="m307.214844 426.644531c-28.226563 0-51.199219-22.964843-51.199219-51.199219 0-28.238281 22.972656-51.199218 51.199219-51.199218 28.230468 0 51.199218 22.960937 51.199218 51.199218 0 28.234376-22.96875 51.199219-51.199218 51.199219zm0-85.332031c-18.824219 0-34.132813 15.308594-34.132813 34.132812 0 18.824219 15.308594 34.132813 34.132813 34.132813 18.824218 0 34.132812-15.308594 34.132812-34.132813 0-18.824218-15.316406-34.132812-34.132812-34.132812zm0 0"/><path d="m307.214844 426.644531c-3.316406 0-6.6875-.339843-10.023438-1.007812-1.144531-.222657-2.289062-.570313-3.421875-.953125l-1.90625-.566406c-1.449219-.398438-2.890625-.828126-4.265625-1.398438-1.28125-.519531-2.566406-1.226562-3.847656-1.953125l-1.886719-1.015625c-1.050781-.53125-2.089843-1.074219-3.054687-1.722656-2.832032-1.894532-5.453125-4.039063-7.78125-6.359375-2.332032-2.320313-4.472656-4.949219-6.382813-7.808594-.65625-.980469-1.203125-2.011719-1.734375-3.0625l-1.140625-2.191406c-1.433593-2.824219-1.179687-6.222657.664063-8.808594 1.074218-1.507813 2.21875-2.984375 3.585937-4.34375 12.890625-12.902344 35.375-12.902344 48.269531 0 9.027344 9.03125 12.195313 22.265625 8.261719 34.542969-.972656 3.039062-3.558593 5.273437-6.699219 5.820312-2.464843.402344-5.417968.828125-8.636718.828125zm-27.296875-30.738281c.988281 1.324219 2.046875 2.5625 3.167969 3.679688 1.535156 1.535156 3.292968 2.96875 5.210937 4.25.394531.253906.828125.460937 1.253906.664062l2.621094 1.417969c.648437.367187 1.28125.75 1.953125 1.023437.769531.324219 1.511719.503906 2.253906.707032l2.757813.828124c.449219.15625.902343.324219 1.363281.417969 2.234375.453125 4.453125.675781 6.621094.683594.035156-4.480469-1.679688-8.824219-4.914063-12.066406-5.863281-5.878907-15.769531-6.492188-22.289062-1.605469zm0 0"/><path d="m119.484375 401.042969c-13.675781 0-26.535156-5.324219-36.203125-15-11.007812-11.007813-16.28125-26.351563-14.464844-42.078125.359375-3.078125 2.347656-5.722656 5.214844-6.910156l68.5625-28.375c2.867188-1.183594 6.144531-.722657 8.574219 1.207031l.949219.730469c1.238281.941406 2.449218 1.90625 3.574218 3.023437 9.667969 9.667969 15.003906 22.527344 15.003906 36.195313 0 13.671874-5.328124 26.53125-15.003906 36.199218-9.675781 9.683594-22.535156 15.007813-36.207031 15.007813zm-33.953125-50.277344c.179688 8.765625 3.636719 17.035156 9.8125 23.210937 12.894531 12.902344 35.378906 12.902344 48.273438 0 6.453124-6.449218 10-15.015624 10-24.128906 0-8.78125-3.292969-17.050781-9.292969-23.410156zm0 0"/><path d="m298.476562 315.722656c-1.328124 0-2.667968-.164062-3.992187-.46875-4.515625-1.058594-8.355469-3.808594-10.804687-7.75l-15.410157-24.824218c-.808593-1.296876-2.167969-2.089844-3.71875-2.15625-2.78125-.128907-5.324219-1.597657-6.828125-3.945313-1.492187-2.335937-1.757812-5.273437-.691406-7.839844l3.390625-8.199219c1.628906-3.933593-.726563-6.726562-1.496094-7.484374-.757812-.761719-3.539062-3.097657-7.472656-1.496094l-11.289063 4.679687c-3.867187 1.601563-8.3125.167969-10.515624-3.378906l-5.160157-8.320313c-2.449219-3.945312-3.21875-8.601562-2.160156-13.125 1.058594-4.523437 3.8125-8.355468 7.757813-10.8125l13.957031-8.667968c3.9375-2.449219 8.585937-3.234375 13.125-2.167969 4.523437 1.058594 8.355469 3.804687 10.8125 7.746094l15.410156 24.824219c.648437 1.042968 1.671875 1.773437 2.867187 2.054687 1.195313.292969 2.433594.078125 3.472657-.570313 5.847656-3.625 13.542969-1.816406 17.160156 4.019532l20.265625 32.648437c5.054688 8.132813 2.542969 18.867188-5.585938 23.925781l-13.953124 8.671876c-2.789063 1.738281-5.9375 2.636718-9.140626 2.636718zm-.296874-17.230468c.007812 0 .425781.101562.433593.101562l13.960938-8.667969-18.03125-29.566406c-3.871094 1.363281-8.0625 1.621094-12.167969.65625-1.527344-.359375-2.984375-.871094-4.367188-1.527344-.1875 2.507813-.777343 5.035157-1.785156 7.484375 2.613282 1.707032 4.855469 3.976563 6.546875 6.695313zm-44.6875-71.960938-14.40625 8.578125 1.453124 2.507813 4.382813-1.816407c4.394531-1.828125 9.003906-2.289062 13.363281-1.527343zm0 0"/><path d="m361.46875 186.597656c-4.640625 0-9.011719-1.808594-12.285156-5.09375l-11.625-11.625c-3.273438-3.273437-5.085938-7.644531-5.085938-12.285156 0-4.644531 1.8125-9.011719 5.085938-12.289062l20.660156-20.648438c1.792969-1.800781 1.792969-4.71875 0-6.519531-4.855469-4.855469-4.855469-12.757813 0-17.613281l20.554688-20.566407c3.023437-3.019531 7.800781-3.335937 11.199218-.765625 9.410156 7.148438 18.328125 15.109375 26.503906 23.679688 3.199219 3.351562 3.136719 8.652344-.136718 11.917968l-15.402344 15.414063c-1.800781 1.796875-1.800781 4.71875 0 6.519531 2.355469 2.34375 3.652344 5.484375 3.652344 8.804688 0 3.320312-1.296875 6.460937-3.652344 8.804687l-27.171875 27.179688c-3.285156 3.277343-7.652344 5.085937-12.296875 5.085937zm11.71875-76.925781c5.390625 8.378906 4.417969 19.710937-2.910156 27.039063l-20.652344 20.652343 11.625 12.074219 24.683594-24.292969c-5.367188-8.390625-4.394532-19.695312 2.929687-27.019531l9.386719-9.394531c-4.097656-3.964844-8.371094-7.753907-12.777344-11.363281zm0 0"/><path d="m421.203125 375.445312c-4.644531 0-9.011719-1.808593-12.289063-5.09375l-11.621093-11.621093c-3.277344-3.277344-5.085938-7.648438-5.085938-12.289063s1.808594-9.011718 5.09375-12.289062l20.652344-20.648438c1.796875-1.800781 1.796875-4.71875 0-6.519531-2.355469-2.347656-3.652344-5.488281-3.652344-8.808594 0-3.316406 1.296875-6.457031 3.652344-8.804687l27.167969-27.179688c6.5625-6.570312 18.011718-6.570312 24.582031 0l4.941406 4.941406c1.765625 1.765626 2.671875 4.214844 2.476563 6.699219-.8125 10.359375-2.5 21.109375-5 31.941407-.359375 1.550781-1.152344 2.976562-2.28125 4.101562l-9.164063 9.164062c-1.789062 1.800782-1.789062 4.71875 0 6.519532.546875.546875 1.308594 1.582031 1.683594 2.253906 1.253906 2.226562 1.578125 5.101562.65625 7.484375l-.5625 1.46875c-.8125 2.113281-1.621094 4.222656-2.511719 6.296875-.425781.996094-1.039062 1.902344-1.808594 2.660156l-24.625 24.628906c-3.292968 3.285157-7.664062 5.09375-12.304687 5.09375zm11.730469-76.902343c5.371094 8.390625 4.394531 19.695312-2.925782 27.015625l-20.648437 20.660156 11.621094 12.066406 23.902343-23.476562c.167969-.417969.339844-.84375.511719-1.261719-5.050781-8.34375-3.984375-19.378906 3.207031-26.5625l7.417969-7.417969c1.722657-7.855468 2.976563-15.621094 3.734375-23.183594l-2.125-2.125zm30.867187 5.300781h.085938zm0 0"/><path d="m164.960938 149.027344c-5.820313 0-11.503907-2.910156-14.789063-8.203125l-15.410156-24.8125c-.648438-1.042969-1.675781-1.777344-2.867188-2.058594-1.203125-.289063-2.433593-.074219-3.472656.574219-5.839844 3.625-13.535156 1.816406-17.152344-4.019532l-5.128906-8.269531c-2.175781-3.507812-1.527344-8.074219 1.535156-10.847656 8.941407-8.046875 18.449219-15.359375 28.269531-21.722656 1.921876-1.246094 4.269532-1.664063 6.503907-1.160157 2.234375.503907 4.179687 1.875 5.382812 3.820313l2.066407 3.335937c1.339843 2.152344 4.1875 2.816407 6.347656 1.488282 2.800781-1.75 6.144531-2.304688 9.394531-1.5625 3.253906.757812 6.007813 2.730468 7.757813 5.5625l20.265624 32.648437c2.449219 3.941407 3.21875 8.601563 2.160157 13.125-1.058594 4.519531-3.816407 8.363281-7.757813 10.808594l-13.960937 8.671875c-2.847657 1.78125-6.023438 2.621094-9.144531 2.621094zm-34.160157-52.265625c1.65625 0 3.328125.175781 4.984375.570312 5.640625 1.3125 10.425782 4.761719 13.480469 9.675781l15.410156 24.816407 14.398438-8.578125-18.03125-29.574219c-7.859375 2.796875-16.691407.777344-22.5625-5.113281-3.789063 2.671875-7.515625 5.511718-11.160157 8.472656 1.140626-.175781 2.3125-.269531 3.480469-.269531zm-5.050781 4.734375.007812.015625c0-.007813-.007812-.007813-.007812-.015625zm39.515625-9.847656c-.007813.007812-.023437.015624-.035156.027343.011719-.011719.027343-.019531.035156-.027343zm0 0"/></g></svg>