<svg height="496pt" viewBox="0 0 496 496" width="496pt" xmlns="http://www.w3.org/2000/svg"><path d="m8 8h416v64h-416zm0 0" fill="#754c24"/><path d="m8 8h384v64h-384zm0 0" fill="#8c6239"/><path d="m240 40h-48c-17.671875 0-32-14.328125-32-32h112c0 17.671875-14.328125 32-32 32zm0 0" fill="#a67c52"/><path d="m248 8h-88c0 17.671875 14.328125 32 32 32h24c17.671875 0 32-14.328125 32-32zm0 0" fill="#c69c6d"/><path d="m24 72h416v64h-416zm0 0" fill="#a67c52"/><path d="m24 72h384v64h-384zm0 0" fill="#c69c6d"/><path d="m8 136h416v64h-416zm0 0" fill="#754c24"/><path d="m8 136h384v64h-384zm0 0" fill="#8c6239"/><path d="m488 296c0 106.039062-85.960938 192-192 192s-192-85.960938-192-192 85.960938-192 192-192 192 85.960938 192 192zm0 0" fill="#fbb03b"/><path d="m456 296c0 88.367188-71.632812 160-160 160s-160-71.632812-160-160 71.632812-160 160-160 160 71.632812 160 160zm0 0" fill="#fdd089"/><path d="m320 296c0 13.253906-10.746094 24-24 24s-24-10.746094-24-24 10.746094-24 24-24 24 10.746094 24 24zm0 0" fill="#69952f"/><path d="m304 296c0-12.441406-7.164062-22.527344-16-22.527344s-16 10.085938-16 22.527344 7.164062 22.527344 16 22.527344 16-10.085938 16-22.527344zm0 0" fill="#8cc63f"/><path d="m312 376c-6.175781 0-11.742188 2.398438-16 6.230469-4.257812-3.832031-9.824219-6.230469-16-6.230469-13.257812 0-24 10.742188-24 24s10.742188 24 24 24c6.175781 0 11.742188-2.398438 16-6.230469 4.257812 3.832031 9.824219 6.230469 16 6.230469 13.257812 0 24-10.742188 24-24s-10.742188-24-24-24zm0 0" fill="#ff3"/><path d="m312 168c-6.175781 0-11.742188 2.398438-16 6.230469-4.257812-3.832031-9.824219-6.230469-16-6.230469-13.257812 0-24 10.742188-24 24s10.742188 24 24 24c6.175781 0 11.742188-2.398438 16-6.230469 4.257812 3.832031 9.824219 6.230469 16 6.230469 13.257812 0 24-10.742188 24-24s-10.742188-24-24-24zm0 0" fill="#ff3"/><path d="m424 312c0-6.175781-2.398438-11.742188-6.230469-16 3.832031-4.257812 6.230469-9.824219 6.230469-16 0-13.257812-10.742188-24-24-24s-24 10.742188-24 24c0 6.175781 2.398438 11.742188 6.230469 16-3.832031 4.257812-6.230469 9.824219-6.230469 16 0 13.257812 10.742188 24 24 24s24-10.742188 24-24zm0 0" fill="#911d22"/><path d="m392 257.472656c-9.304688 3.304688-16 12.09375-16 22.527344 0 6.175781 2.398438 11.742188 6.230469 16-3.832031 4.257812-6.230469 9.824219-6.230469 16 0 10.433594 6.695312 19.222656 16 22.527344 9.304688-3.304688 16-12.09375 16-22.527344 0-6.175781-2.398438-11.742188-6.230469-16 3.832031-4.257812 6.230469-9.824219 6.230469-16 0-10.433594-6.695312-19.222656-16-22.527344zm0 0" fill="#c1272d"/><path d="m216 312c0-6.175781-2.398438-11.742188-6.230469-16 3.832031-4.257812 6.230469-9.824219 6.230469-16 0-13.257812-10.742188-24-24-24s-24 10.742188-24 24c0 6.175781 2.398438 11.742188 6.230469 16-3.832031 4.257812-6.230469 9.824219-6.230469 16 0 13.257812 10.742188 24 24 24s24-10.742188 24-24zm0 0" fill="#911d22"/><path d="m184 257.472656c-9.304688 3.304688-16 12.09375-16 22.527344 0 6.175781 2.398438 11.742188 6.230469 16-3.832031 4.257812-6.230469 9.824219-6.230469 16 0 10.433594 6.695312 19.222656 16 22.527344 9.304688-3.304688 16-12.09375 16-22.527344 0-6.175781-2.398438-11.742188-6.230469-16 3.832031-4.257812 6.230469-9.824219 6.230469-16 0-10.433594-6.695312-19.222656-16-22.527344zm0 0" fill="#c1272d"/><path d="m296 496c-110.28125 0-200-89.71875-200-200s89.71875-200 200-200 200 89.71875 200 200-89.71875 200-200 200zm0-384c-101.464844 0-184 82.535156-184 184s82.535156 184 184 184 184-82.535156 184-184-82.535156-184-184-184zm0 0"/><path d="m296 464c-92.632812 0-168-75.367188-168-168s75.367188-168 168-168 168 75.367188 168 168-75.367188 168-168 168zm0-320c-83.816406 0-152 68.183594-152 152s68.183594 152 152 152 152-68.183594 152-152-68.183594-152-152-152zm0 0"/><path d="m312 224c-5.640625 0-11.152344-1.519531-16-4.367188-4.847656 2.847657-10.359375 4.367188-16 4.367188-17.648438 0-32-14.351562-32-32s14.351562-32 32-32c5.640625 0 11.152344 1.519531 16 4.367188 4.847656-2.847657 10.359375-4.367188 16-4.367188 17.648438 0 32 14.351562 32 32s-14.351562 32-32 32zm-16-22.222656c1.910156 0 3.832031.6875 5.351562 2.054687 2.992188 2.679688 6.769532 4.167969 10.648438 4.167969 8.824219 0 16-7.175781 16-16s-7.175781-16-16-16c-3.878906 0-7.65625 1.488281-10.648438 4.167969-3.03125 2.734375-7.671874 2.734375-10.703124 0-2.992188-2.679688-6.769532-4.167969-10.648438-4.167969-8.824219 0-16 7.175781-16 16s7.175781 16 16 16c3.878906 0 7.65625-1.488281 10.648438-4.167969 1.519531-1.367187 3.441406-2.054687 5.351562-2.054687zm0 0"/><path d="m312 432c-5.640625 0-11.152344-1.519531-16-4.367188-4.847656 2.847657-10.359375 4.367188-16 4.367188-17.648438 0-32-14.351562-32-32s14.351562-32 32-32c5.640625 0 11.152344 1.519531 16 4.367188 4.847656-2.847657 10.359375-4.367188 16-4.367188 17.648438 0 32 14.351562 32 32s-14.351562 32-32 32zm-16-22.222656c1.910156 0 3.832031.6875 5.351562 2.054687 2.992188 2.679688 6.769532 4.167969 10.648438 4.167969 8.824219 0 16-7.175781 16-16s-7.175781-16-16-16c-3.878906 0-7.65625 1.488281-10.648438 4.167969-3.03125 2.734375-7.671874 2.734375-10.703124 0-2.992188-2.679688-6.769532-4.167969-10.648438-4.167969-8.824219 0-16 7.175781-16 16s7.175781 16 16 16c3.878906 0 7.65625-1.488281 10.648438-4.167969 1.519531-1.367187 3.441406-2.054687 5.351562-2.054687zm0 0"/><path d="m400 344c-17.648438 0-32-14.351562-32-32 0-5.640625 1.519531-11.152344 4.367188-16-2.847657-4.847656-4.367188-10.359375-4.367188-16 0-17.648438 14.351562-32 32-32s32 14.351562 32 32c0 5.640625-1.519531 11.152344-4.367188 16 2.847657 4.847656 4.367188 10.359375 4.367188 16 0 17.648438-14.351562 32-32 32zm0-80c-8.824219 0-16 7.175781-16 16 0 3.878906 1.488281 7.65625 4.167969 10.648438 2.742187 3.039062 2.742187 7.664062 0 10.703124-2.679688 2.992188-4.167969 6.769532-4.167969 10.648438 0 8.824219 7.175781 16 16 16s16-7.175781 16-16c0-3.878906-1.488281-7.65625-4.167969-10.648438-2.742187-3.039062-2.742187-7.664062 0-10.703124 2.679688-2.992188 4.167969-6.769532 4.167969-10.648438 0-8.824219-7.175781-16-16-16zm0 0"/><path d="m192 344c-17.648438 0-32-14.351562-32-32 0-5.640625 1.519531-11.152344 4.367188-16-2.847657-4.847656-4.367188-10.359375-4.367188-16 0-17.648438 14.351562-32 32-32s32 14.351562 32 32c0 5.640625-1.519531 11.152344-4.367188 16 2.847657 4.847656 4.367188 10.359375 4.367188 16 0 17.648438-14.351562 32-32 32zm0-80c-8.824219 0-16 7.175781-16 16 0 3.878906 1.488281 7.65625 4.167969 10.648438 2.742187 3.039062 2.742187 7.664062 0 10.703124-2.679688 2.992188-4.167969 6.769532-4.167969 10.648438 0 8.824219 7.175781 16 16 16s16-7.175781 16-16c0-3.878906-1.488281-7.65625-4.167969-10.648438-2.742187-3.039062-2.742187-7.664062 0-10.703124 2.679688-2.992188 4.167969-6.769532 4.167969-10.648438 0-8.824219-7.175781-16-16-16zm0 0"/><path d="m194.34375 205.660156 11.3125-11.3125 32 32-11.3125 11.3125zm0 0"/><path d="m354.339844 226.339844 32.003906-32 11.3125 11.316406-32 32zm0 0"/><path d="m194.339844 386.339844 32.003906-32 11.3125 11.3125-32 32zm0 0"/><path d="m354.339844 365.660156 11.3125-11.3125 32 32-11.3125 11.3125zm0 0"/><path d="m296 328c-17.648438 0-32-14.351562-32-32s14.351562-32 32-32 32 14.351562 32 32-14.351562 32-32 32zm0-48c-8.824219 0-16 7.175781-16 16s7.175781 16 16 16 16-7.175781 16-16-7.175781-16-16-16zm0 0"/><path d="m128 208h-120c-4.425781 0-8-3.574219-8-8v-64c0-4.425781 3.574219-8 8-8h184v16h-176v48h112zm0 0"/><path d="m440 144h-40v-16h32v-48h-400v48h160v16h-168c-4.425781 0-8-3.574219-8-8v-64c0-4.425781 3.574219-8 8-8h416c4.425781 0 8 3.574219 8 8v64c0 4.425781-3.574219 8-8 8zm0 0"/><path d="m424 80h-416c-4.425781 0-8-3.574219-8-8v-64c0-4.425781 3.574219-8 8-8h416c4.425781 0 8 3.574219 8 8v64c0 4.425781-3.574219 8-8 8zm-408-16h400v-48h-400zm0 0"/><path d="m240 48h-48c-22.054688 0-40-17.945312-40-40 0-4.425781 3.574219-8 8-8h112c4.425781 0 8 3.574219 8 8 0 22.054688-17.945312 40-40 40zm-70.632812-32c3.304687 9.3125 12.199218 16 22.632812 16h48c10.433594 0 19.328125-6.6875 22.632812-16zm0 0"/></svg>