<svg height="512pt" viewBox="0 0 512.01191 512" width="512pt" xmlns="http://www.w3.org/2000/svg"><path d="m224.617188 10.402344c-110.503907 13.40625-199.460938 101.503906-214.222657 211.835937-5.496093 41.023438-.769531 80.34375 11.792969 115.980469l33.425781-13.976562c-1.015625-7.367188 1.722657-15.257813 8.140625-19.355469 1.253906-1.320313 2.71875-2.558594 4.546875-3.625 39.226563-22.679688 81.625-33.074219 123.984375-47.929688 27.058594-9.488281 58.785156-30.882812 85.792969-10.734375 9.921875 7.40625 9.863281 19.554688 4.855469 27.867188 1.449218 3.480468 1.636718 7.671875-.300782 12.476562-9.640624 23.933594-21.726562 46.164063-34.414062 68.589844-12.433594 21.988281-32.324219 48.363281-36.582031 74.109375 10.726562 10.304687 6.519531 33.523437-12.722657 33.523437-4.121093 0-7.492187-1.132812-10.238281-2.910156l-13.847656 33.621094c35.53125 12.261719 74.671875 16.792969 115.5 11.144531 110.128906-15.230469 197.796875-104.324219 210.914063-214.707031 19.097656-160.671875-115.898438-295.414062-276.625-275.910156zm0 0" fill="#dc691d"/><path d="m239.992188 43.203125c-99.535157 7.074219-182.195313 84.367187-195.703126 183.242187-4.710937 34.480469-.792968 68.5 9.351563 98.605469l194.136719-81.378906c12.671875-5.238281 25.351562 7.441406 20.109375 20.113281l-80.023438 194.46875c30.097657 10.136719 62.753907 13.726563 97.226563 9.027344 98.863281-13.5 176.164062-96.125 183.273437-195.65625 9.285157-130.121094-98.242187-237.671875-228.371093-228.421875zm0 0" fill="#f7e6a1"/><path d="m145.054688 458.097656c-2.398438-2.96875-3.667969-7.046875-3.054688-12.261718 4.984375-42.304688 15.554688-79.730469 35.914062-114.480469-10.65625 5.574219-21.363281 11.0625-32.578124 15.550781-24.769532 9.914062-54.601563 9.007812-76.839844 24.308594-7.925782 5.453125-15.605469 3.730468-20.90625-1.1875-4.667969-1.609375-7.960938-4.863282-9.890625-8.882813l-29.558594 12.230469c24.335937 58.75 71.3125 105.714844 130.054687 130.050781l14.273438-34.5c-3.855469-2.542969-6.3125-6.457031-7.414062-10.828125zm0 0" fill="#dc691d"/><path d="m151.265625 471.835938 78.726563-190.261719-193.84375 80.210937c25.164062 48.179688 65.6875 87.03125 115.117187 110.050782zm0 0" fill="#f7e6a1"/><path d="m120.523438 236.070312c0 10.996094-11.886719 19.90625-26.546876 19.90625-14.660156 0-26.546874-8.917968-26.546874-19.90625 0-5.632812 3.15625-10.683593 8.191406-14.285156 3.3125-2.363281 5.085937-6.339844 5.085937-10.410156v-1.050781c0-6.621094 4.480469-12.789063 11.007813-13.890625 8.285156-1.390625 15.539062 5.035156 15.539062 13.082031v1.859375c0 4.070312 1.773438 8.039062 5.085938 10.410156 5.023437 3.601563 8.183594 8.644532 8.183594 14.285156zm0 0" fill="#6b4842"/><path d="m419.179688 295.800781c0 11-11.886719 19.90625-26.546876 19.90625-14.660156 0-26.546874-8.917969-26.546874-19.90625 0-5.632812 3.15625-10.683593 8.191406-14.285156 3.3125-2.363281 5.085937-6.339844 5.085937-10.410156v-1.050781c0-6.621094 4.480469-12.789063 11.007813-13.890626 8.285156-1.390624 15.539062 5.035157 15.539062 13.082032v1.859375c0 4.070312 1.773438 8.039062 5.085938 10.410156 5.027344 3.601563 8.183594 8.644531 8.183594 14.285156zm0 0" fill="#6b4842"/><path d="m288.949219 142.265625c0 11-11.886719 19.90625-26.546875 19.90625s-26.546875-8.917969-26.546875-19.90625c0-5.632813 3.15625-10.683594 8.191406-14.285156 3.3125-2.363281 5.085937-6.339844 5.085937-10.410157v-1.050781c0-6.621093 4.480469-12.789062 11.007813-13.890625 8.285156-1.390625 15.539063 5.035156 15.539063 13.082032v1.859374c0 4.070313 1.773437 8.039063 5.085937 10.410157 5.023437 3.601562 8.183594 8.652343 8.183594 14.285156zm0 0" fill="#6b4842"/><path d="m289.289062 415.261719c0 11-11.886718 19.910156-26.546874 19.910156-14.660157 0-26.546876-8.917969-26.546876-19.910156 0-5.628907 3.160157-10.683594 8.191407-14.285157 3.3125-2.363281 5.085937-6.339843 5.085937-10.410156v-1.046875c0-6.621093 4.480469-12.792969 11.007813-13.894531 8.285156-1.390625 15.539062 5.035156 15.539062 13.082031v1.859375c0 4.070313 1.777344 8.039063 5.085938 10.410156 5.027343 3.601563 8.183593 8.644532 8.183593 14.285157zm0 0" fill="#6b4842"/><path d="m195.425781 136.511719c-5.992187-13.0625-24.730469-23.78125-38.160156-14.179688-6.332031 4.523438-10.035156 13.125-10.238281 20.761719-.300782 11.21875 8.140625 20.726562 14.753906 28.933594 6.277344 7.800781 11.765625 15.308594 7.25 25.496094-5.1875 11.707031-5.367188 19.167968-4.605469 23.363281.511719 2.84375 2.234375 4.960937 4.792969 6.445312 4.414062 2.550781 4.414062-2.550781 4.414062-2.550781-2.542968-4.898438 2.535157-9.34375 2.535157-9.34375 8.574219-8.269531 14.128906-17.128906 17.695312-25.582031 6.042969-14.355469 8.859375-37.417969 1.5625-53.34375zm0 0" fill="#23a24d"/><path d="m316.832031 387.828125c11.027344 9.226563 32.546875 10.847656 40.550781-3.589844 3.773438-6.8125 3.421876-16.164062.324219-23.152343-4.546875-10.257813-16.253906-15.214844-25.753906-19.789063-9.027344-4.34375-17.203125-8.761719-17.5-19.90625-.351563-12.800781-3.386719-19.609375-5.878906-23.074219-1.679688-2.335937-4.148438-3.515625-7.101563-3.753906-5.074218-.410156-2.882812 4.199219-2.882812 4.199219 4.402344 3.335937 1.730468 9.523437 1.730468 9.523437-4.1875 11.152344-5.398437 21.535156-4.980468 30.699219.699218 15.574219 8.0625 37.605469 21.492187 48.84375zm0 0" fill="#ebba16"/><path d="m372.332031 188.558594c7.996094-11.949219 7.304688-33.519532-7.902343-39.9375-7.167969-3.019532-16.433594-1.671875-23.046876 2.152344-9.710937 5.621093-13.386718 17.789062-16.921874 27.722656-3.351563 9.4375-6.875 18.039062-17.917969 19.53125-12.6875 1.714844-19.140625 5.472656-22.3125 8.3125-2.152344 1.917968-3.054688 4.496094-2.980469 7.457031.136719 5.09375 4.488281 2.414063 4.488281 2.414063 2.84375-4.734376 9.285157-2.738282 9.285157-2.738282 11.535156 2.96875 21.988281 3.074219 31.058593 1.671875 15.386719-2.355469 36.503907-12.039062 46.25-26.585937zm0 0" fill="#dd352e"/><path d="m86.074219 389.679688c8.371093 11.683593 28.816406 18.621093 40.164062 6.640624 5.351563-5.648437 7.347657-14.796874 6.085938-22.339843-1.851563-11.066407-11.945313-18.789063-20.003907-25.582031-4.878906-4.121094-9.394531-8.191407-11.398437-13.414063l-24.601563 10.179687c-1.261718 14.53125 1.230469 32.621094 9.753907 44.515626zm0 0" fill="#dd352e"/><g fill="#000"><path d="m332.390625 273.042969c-2.1875 0-4.371094-.835938-6.035156-2.5-3.335938-3.335938-3.335938-8.730469 0-12.066407l17.066406-17.066406c3.335937-3.335937 8.730469-3.335937 12.066406 0 3.335938 3.335938 3.335938 8.730469 0 12.066406l-17.066406 17.066407c-1.664063 1.664062-3.847656 2.5-6.03125 2.5zm0 0"/><path d="m315.324219 127.980469c-2.183594 0-4.371094-.835938-6.035157-2.5-3.335937-3.335938-3.335937-8.730469 0-12.066407l17.066407-17.066406c3.335937-3.335937 8.730469-3.335937 12.066406 0 3.335937 3.335938 3.335937 8.730469 0 12.066406l-17.066406 17.066407c-1.664063 1.664062-3.847657 2.5-6.03125 2.5zm0 0"/><path d="m229.992188 213.3125c-2.183594 0-4.367188-.835938-6.03125-2.5-3.335938-3.339844-3.335938-8.730469 0-12.066406l17.066406-17.066406c3.335937-3.335938 8.726562-3.335938 12.0625 0 3.339844 3.335937 3.339844 8.730468 0 12.066406l-17.0625 17.066406c-1.664063 1.664062-3.851563 2.5-6.035156 2.5zm0 0"/><path d="m161.726562 358.371094c-2.183593 0-4.367187-.835938-6.03125-2.5-3.335937-3.335938-3.335937-8.726563 0-12.0625l17.066407-17.066406c3.335937-3.335938 8.730469-3.335938 12.066406 0 3.335937 3.335937 3.335937 8.726562 0 12.066406l-17.066406 17.0625c-1.664063 1.664062-3.847657 2.5-6.035157 2.5zm0 0"/><path d="m94.410156 264.507812c-19.34375 0-35.078125-12.753906-35.078125-28.4375 0-8.140624 4.285157-15.871093 11.75-21.222656.9375-.667968 1.519531-1.996094 1.519531-3.464844v-1.050781c0-10.972656 7.789063-20.5625 18.125-22.304687 6.347657-1.050782 12.839844.691406 17.746094 4.847656 4.925782 4.164062 7.742188 10.230469 7.742188 16.648438v1.859374c0 1.46875.578125 2.796876 1.515625 3.464844 7.46875 5.339844 11.75 13.082032 11.75 21.222656.011719 15.945313-15.402344 28.4375-35.070313 28.4375zm-.007812-59.730468c-.265625 0-.546875.027344-.84375.078125-2.175782.367187-3.882813 2.773437-3.882813 5.476562v1.050781c0 6.980469-3.234375 13.472657-8.652343 17.347657-1.722657 1.238281-4.625 3.832031-4.625 7.339843 0 5.382813 7.398437 11.371094 18.011718 11.371094 10.617188 0 18.015625-5.988281 18.015625-11.371094 0-3.515624-2.894531-6.109374-4.617187-7.339843-5.417969-3.875-8.660156-10.367188-8.660156-17.347657v-1.859374c0-1.382813-.625-2.707032-1.699219-3.617188-.527344-.453125-1.570313-1.128906-3.046875-1.128906zm0 0"/><path d="m393.066406 324.242188c-19.34375 0-35.078125-12.757813-35.078125-28.441407 0-8.140625 4.285157-15.871093 11.75-21.222656.9375-.664063 1.519531-1.996094 1.519531-3.464844v-1.050781c0-10.972656 7.789063-20.5625 18.125-22.304688 6.347657-1.046874 12.839844.691407 17.746094 4.847657 4.925782 4.164062 7.742188 10.230469 7.742188 16.648437v1.859375c0 1.46875.578125 2.800781 1.519531 3.464844 7.464844 5.34375 11.75 13.082031 11.75 21.222656.007813 15.949219-15.402344 28.441407-35.074219 28.441407zm-.007812-59.734376c-.265625 0-.546875.027344-.84375.078126-2.175782.367187-3.882813 2.773437-3.882813 5.476562v1.050781c0 6.980469-3.234375 13.472657-8.652343 17.347657-1.722657 1.238281-4.625 3.832031-4.625 7.339843 0 5.382813 7.398437 11.375 18.011718 11.375 10.617188 0 18.015625-5.992187 18.015625-11.375 0-3.515625-2.894531-6.109375-4.617187-7.339843-5.417969-3.875-8.660156-10.367188-8.660156-17.347657v-1.859375c0-1.382812-.625-2.707031-1.699219-3.617187-.527344-.453125-1.570313-1.128907-3.046875-1.128907zm0 0"/><path d="m262.828125 170.707031c-19.675781 0-35.078125-12.492187-35.078125-28.441406 0-8.140625 4.28125-15.871094 11.757812-21.222656.929688-.664063 1.507813-1.996094 1.507813-3.464844v-1.050781c0-10.972656 7.792969-20.5625 18.125-22.304688 6.367187-1.03125 12.835937.710938 17.75 4.855469 4.921875 4.15625 7.746094 10.222656 7.746094 16.640625v1.859375c0 1.46875.582031 2.800781 1.519531 3.464844 7.46875 5.34375 11.75 13.082031 11.75 21.222656 0 15.949219-15.402344 28.441406-35.078125 28.441406zm-.007813-59.734375c-.265624 0-.546874.027344-.84375.078125-2.144531.359375-3.894531 2.816407-3.894531 5.476563v1.050781c0 6.980469-3.234375 13.464844-8.640625 17.339844-1.734375 1.246093-4.625 3.839843-4.625 7.347656 0 5.382813 7.394532 11.375 18.011719 11.375 10.613281 0 18.011719-5.992187 18.011719-11.375 0-3.515625-2.890625-6.109375-4.613282-7.339844-5.421874-3.875-8.652343-10.359375-8.652343-17.347656v-1.867187c0-1.382813-.625-2.699219-1.699219-3.617188-.539062-.445312-1.578125-1.121094-3.054688-1.121094zm0 0"/><path d="m263.179688 443.703125c-19.347657 0-35.082032-12.757813-35.082032-28.441406 0-8.140625 4.285156-15.878907 11.757813-21.21875.933593-.667969 1.519531-2 1.519531-3.464844v-1.050781c0-10.972656 7.792969-20.566406 18.125-22.304688 6.339844-1.058594 12.84375.691406 17.75 4.847656 4.921875 4.164063 7.738281 10.230469 7.738281 16.644532v1.863281c0 1.464844.582031 2.796875 1.519531 3.464844 7.464844 5.339843 11.75 13.078125 11.75 21.21875 0 15.683593-15.734374 28.441406-35.078124 28.441406zm-.011719-59.730469c-.261719 0-.542969.023438-.84375.078125-2.175781.363281-3.882813 2.769531-3.882813 5.476563v1.050781c0 6.980469-3.234375 13.472656-8.652344 17.347656-1.730468 1.234375-4.625 3.820313-4.625 7.335938 0 5.386719 7.398438 11.375 18.015626 11.375 10.613281 0 18.011718-5.988281 18.011718-11.375 0-3.515625-2.894531-6.109375-4.617187-7.335938-5.417969-3.875-8.660157-10.367187-8.660157-17.347656v-1.863281c0-1.378906-.625-2.703125-1.699218-3.617188-.527344-.453125-1.570313-1.125-3.046875-1.125zm0 0"/><path d="m255.875 477.851562c-24.023438 0-47.691406-3.890624-70.699219-11.636718-2.234375-.753906-4.070312-2.398438-5.042969-4.550782-.980468-2.148437-1.023437-4.613281-.117187-6.800781l80.414063-194.332031c1.621093-3.921875-.726563-6.714844-1.492188-7.472656-.761719-.761719-3.542969-3.113282-7.476562-1.492188l-194.320313 80.414063c-2.1875.902343-4.644531.871093-6.792969-.121094-2.152344-.972656-3.796875-2.796875-4.558594-5.042969-11.039062-32.800781-14.242187-66.957031-9.523437-101.535156 14.089844-103.050781 99.691406-183.203125 203.558594-190.582031 64.449219-4.703125 127.585937 18.890625 173.101562 64.421875s68.972657 108.625 64.371094 173.121094c-7.414063 103.84375-87.582031 189.421874-190.628906 203.503906-10.304688 1.40625-20.582031 2.105468-30.792969 2.105468zm-56.523438-25.085937c27.578126 7.960937 56.121094 10.019531 85.015626 6.058594 95.089843-12.980469 169.0625-91.960938 175.90625-187.804688 4.25-59.550781-17.40625-117.816406-59.421876-159.832031-42.007812-42.035156-100.238281-63.605469-159.824218-59.476562-95.84375 6.820312-174.851563 80.785156-187.855469 175.894531-3.941406 28.890625-1.914063 57.441406 6.058594 85.046875l185.722656-76.855469c9.113281-3.773437 19.09375-1.777344 26.066406 5.179687 6.972657 6.96875 8.960938 16.960938 5.195313 26.074219zm41.078126-409.5625h.085937zm0 0"/><path d="m138.621094 511.96875c-1.109375 0-2.21875-.214844-3.269532-.648438-60.507812-25.070312-109.597656-74.152343-134.667968-134.667968-.871094-2.09375-.871094-4.449219 0-6.539063.871094-2.089843 2.527344-3.746093 4.625-4.617187l221.859375-91.804688c3.175781-1.339844 6.851562-.589844 9.292969 1.851563 2.441406 2.441406 3.175781 6.109375 1.851562 9.300781l-91.796875 221.859375c-.863281 2.089844-2.527344 3.746094-4.617187 4.617187-1.050782.433594-2.160157.648438-3.277344.648438zm-118.753906-134.03125c23.039062 50.183594 64.015624 91.167969 114.195312 114.199219l80.605469-194.808594zm0 0"/><path d="m255.832031 511.992188c-28.355469 0-56.269531-4.691407-83.34375-14.042969-2.21875-.769531-4.027343-2.417969-4.992187-4.558594s-1.007813-4.582031-.109375-6.757813l93.0625-225.964843c1.621093-3.933594-.734375-6.714844-1.503907-7.472657-.757812-.761718-3.558593-3.125-7.484374-1.460937l-225.554688 94.359375c-2.15625.90625-4.605469.886719-6.757812-.078125-2.140626-.945313-3.804688-2.746094-4.589844-4.964844-13.585938-38.570312-17.6875-78.921875-12.203125-119.949219 15.421875-115.078124 106.5625-205.210937 221.664062-219.171874 79.210938-9.582032 156.769531 16.921874 212.796875 72.8125 56.019532 55.882812 82.753906 133.363281 73.34375 212.574218-13.664062 114.925782-103.398437 206.28125-218.207031 222.160156-12.101563 1.671876-24.160156 2.507813-36.121094 2.515626zm-69.152343-27.371094c33.304687 10.128906 67.886718 12.789062 102.925781 7.960937 107.132812-14.832031 190.847656-100.058593 203.597656-207.277343 8.796875-73.972657-16.152344-146.316407-68.445313-198.480469-52.289062-52.160157-124.71875-76.992188-198.683593-67.945313-107.386719 13.019532-192.417969 97.121094-206.789063 204.492188-4.726562 35.292968-1.851562 70.03125 8.535156 103.421875l217.054688-90.808594c9.09375-3.789063 19.105469-1.851563 26.109375 5.109375 7 6.957031 9.011719 16.949219 5.25 26.078125zm38.371093-474.21875h.085938zm0 0"/><path d="m151.703125 480.371094c-1.238281 0-2.46875-.265625-3.601563-.804688-50.816406-23.652344-93.105468-64.082031-119.078124-113.828125-1.109376-2.125-1.273438-4.617187-.460938-6.871093.816406-2.253907 2.542969-4.050782 4.761719-4.964844l193.835937-80.210938c3.175782-1.339844 6.851563-.589844 9.292969 1.851563 2.441406 2.441406 3.171875 6.109375 1.851563 9.300781l-78.726563 190.261719c-.886719 2.148437-2.621094 3.839843-4.785156 4.683593-.992188.382813-2.042969.582032-3.089844.582032zm-103.0625-114.335938c23.003906 40.089844 57.554687 73.070313 98.648437 94.136719l67.386719-162.84375zm0 0"/><path d="m171.796875 236.582031c-1.84375 0-4.011719-.480469-6.417969-1.871093-4.894531-2.839844-7.976562-7.097657-8.914062-12.3125-1.417969-7.816407.339844-17.347657 5.203125-28.328126 2.226562-5.027343.425781-8.578124-6.101563-16.683593l-1.40625-1.722657c-6.945312-8.558593-15.589844-19.207031-15.230468-32.785156.289062-10.90625 5.707031-21.699218 13.804687-27.484375 7.089844-5.070312 15.949219-6.535156 24.925781-4.15625 11.066406 2.953125 21.253906 11.476563 25.957032 21.726563 8.558593 18.679687 5.238281 44.292968-1.460938 60.199218-4.445312 10.5625-11.058594 20.121094-19.625 28.40625-.152344.144532-.289062.28125-.390625.417969.304687.898438.46875 1.84375.46875 2.792969 0 3.472656-1.46875 8.035156-5.574219 10.417969-1.140625.628906-2.933594 1.382812-5.238281 1.382812zm-1.988281-9.609375-.160156.351563.210937-.378907zm-.503906-99.800781c-2.464844 0-4.683594.699219-6.636719 2.097656-3.722657 2.660157-6.527344 8.566407-6.671875 14.046875-.191406 7.277344 5.707031 14.539063 11.414062 21.5625l1.445313 1.789063c6.066406 7.527343 15.230469 18.910156 8.402343 34.304687-.339843.769532-.648437 1.5-.9375 2.21875 4.148438-5.042968 7.570313-10.660156 10.101563-16.664062 5.335937-12.65625 7.730469-33.238282 1.671875-46.457032-2.574219-5.628906-8.675781-10.707031-14.828125-12.34375-1.375-.367187-2.695313-.554687-3.960937-.554687zm0 0"/><path d="m165.722656 142.707031c-3.824218 0-7.296875-2.582031-8.269531-6.464843l-8.53125-34.132813c-1.144531-4.566406 1.636719-9.199219 6.210937-10.34375 4.574219-1.152344 9.207032 1.628906 10.351563 6.210937l8.53125 34.132813c1.144531 4.566406-1.636719 9.199219-6.210937 10.34375-.699219.171875-1.390626.253906-2.082032.253906zm0 0"/><path d="m337.707031 403.453125c-9.355469 0-18.988281-3.285156-25.917969-9.078125-15.75-13.183594-23.761718-37.742188-24.539062-54.980469-.519531-11.46875 1.339844-22.9375 5.519531-34.082031.070313-.1875.128907-.382812.171875-.542969-.65625-.675781-1.210937-1.460937-1.613281-2.3125-1.492187-3.140625-2.132813-7.894531.554687-11.800781 1.066407-1.546875 4.191407-5.085938 10.710938-4.574219 5.636719.46875 10.246094 2.984375 13.34375 7.285157 4.632812 6.460937 7.152344 15.820312 7.476562 27.820312.152344 5.511719 3.292969 7.941406 12.671876 12.449219l2.046874.980469c9.941407 4.734374 22.304688 10.625 27.800782 23.039062 4.429687 9.964844 4.164062 22.039062-.667969 30.753906-4.222656 7.617188-11.578125 12.746094-20.707031 14.445313-2.238282.402343-4.53125.597656-6.851563.597656zm-14.960937-22.160156c4.746094 3.96875 12.441406 5.929687 18.695312 4.777343 4.15625-.777343 7.152344-2.773437 8.910156-5.945312 2.21875-4.011719 2.210938-10.539062-.007812-15.558594-2.945312-6.636718-11.382812-10.664062-19.550781-14.546875l-2.117188-1.007812c-8.703125-4.1875-21.867187-10.519531-22.328125-27.363281-.027344-.839844-.0625-1.640626-.101562-2.40625-1.582032 6.328124-2.253906 12.875-1.957032 19.394531.625 13.703125 7.304688 33.3125 18.457032 42.65625zm-20.835938-86.722657-.035156.445313.042969-.058594zm0 0"/><path d="m367.859375 412.6875c-2.464844 0-4.90625-1.058594-6.585937-3.109375l-22.375-27.160156c-2.992188-3.632813-2.472657-9.019531 1.164062-12.003907 3.632812-2.996093 9.015625-2.484374 12.011719 1.160157l22.375 27.160156c2.996093 3.636719 2.472656 9.019531-1.160157 12.007813-1.597656 1.304687-3.515624 1.945312-5.429687 1.945312zm0 0"/><path d="m283.871094 225.4375c-1.664063 0-3.378906-.359375-5.027344-1.246094-1.644531-.886718-5.511719-3.679687-5.691406-10.15625-.152344-5.648437 1.859375-10.503906 5.8125-14.042968 5.921875-5.300782 14.957031-8.808594 26.859375-10.410157 5.453125-.734375 7.535156-4.121093 11.019531-13.9375l.742188-2.113281c3.640624-10.394531 8.183593-23.320312 19.941406-30.132812 9.445312-5.460938 21.476562-6.5 30.640625-2.625 8.03125 3.378906 13.925781 10.144531 16.589843 19.042968 3.285157 10.964844 1.355469 24.117188-4.917968 33.484375v.007813c-11.425782 17.066406-34.984375 27.65625-52.042969 30.285156-11.347656 1.730469-22.953125 1.125-34.480469-1.851562-.195312-.058594-.382812-.09375-.554687-.121094-.597657.734375-1.324219 1.359375-2.132813 1.863281-1.785156 1.097656-4.199218 1.953125-6.757812 1.953125zm-1.800782-11.691406-.382812.050781.441406-.007813zm23.671876-6.902344c6.464843.886719 13.046874.871094 19.480468-.128906 13.566406-2.089844 32.355469-10.828125 40.453125-22.910156 3.449219-5.15625 4.574219-13.003907 2.75-19.097657-1.214843-4.054687-3.527343-6.816406-6.871093-8.226562-4.207032-1.765625-10.71875-1.074219-15.460938 1.671875-6.289062 3.636718-9.386719 12.46875-12.382812 21.007812l-.765626 2.1875c-3.234374 9.101563-8.132812 22.875-24.824218 25.128906-.835938.117188-1.621094.246094-2.378906.367188zm67.027343-18.285156h.082031zm0 0"/><path d="m358.976562 170.195312c-2.148437 0-4.308593-.8125-5.960937-2.433593-3.371094-3.300781-3.433594-8.703125-.136719-12.066407l24.609375-25.144531c3.300781-3.371093 8.710938-3.421875 12.0625-.136719 3.371094 3.300782 3.433594 8.703126.136719 12.0625l-24.609375 25.148438c-1.671875 1.714844-3.890625 2.570312-6.101563 2.570312zm0 0"/><path d="m131.4375 426.636719c-3.210938 0-6.289062-1.816407-7.730469-4.914063l-14.902343-31.871094c-1.996094-4.273437-.152344-9.351562 4.113281-11.347656 4.257812-1.972656 9.355469-.15625 11.34375 4.113282l14.898437 31.867187c1.996094 4.277344.152344 9.355469-4.113281 11.351563-1.171875.546874-2.398437.800781-3.609375.800781zm0 0"/><path d="m111.527344 411.105469c-.765625 0-1.550782-.023438-2.328125-.082031-11.425781-.777344-23.046875-7.203126-29.617188-16.359376-8.757812-12.226562-12.988281-31-11.324219-50.234374.273438-3.175782 2.296876-5.929688 5.238282-7.152344l24.601562-10.179688c2.125-.878906 4.515625-.859375 6.628906.042969 2.117188.90625 3.773438 2.636719 4.601563 4.789063 1.261719 3.300781 4.949219 6.585937 8.933594 9.949218l1.699219 1.425782c8.453124 7.074218 18.984374 15.871093 21.21875 29.277343 1.792968 10.765625-1.464844 22.390625-8.308594 29.617188-5.488282 5.785156-12.996094 8.90625-21.34375 8.90625zm-26.535156-60.113281c-.242188 13.148437 2.910156 25.992187 8.464843 33.722656v.007812c3.597657 5.027344 10.554688 8.839844 16.902344 9.277344 4.207031.210938 7.628906-.898438 10.128906-3.542969 3.140625-3.320312 4.769531-9.660156 3.867188-15.070312-1.203125-7.175781-8.390625-13.183594-15.34375-19.003907l-1.75-1.464843c-3.4375-2.902344-6.757813-5.835938-9.4375-9.242188zm0 0"/></g></svg>